%TF.GenerationSoftware,KiCad,Pcbnew,7.0.1*%
%TF.CreationDate,2023-03-27T19:42:42+02:00*%
%TF.ProjectId,OpenSPD_PCB,4f70656e-5350-4445-9f50-43422e6b6963,rev?*%
%TF.SameCoordinates,Original*%
%TF.FileFunction,Legend,Bot*%
%TF.FilePolarity,Positive*%
%FSLAX46Y46*%
G04 Gerber Fmt 4.6, Leading zero omitted, Abs format (unit mm)*
G04 Created by KiCad (PCBNEW 7.0.1) date 2023-03-27 19:42:42*
%MOMM*%
%LPD*%
G01*
G04 APERTURE LIST*
G04 Aperture macros list*
%AMRoundRect*
0 Rectangle with rounded corners*
0 $1 Rounding radius*
0 $2 $3 $4 $5 $6 $7 $8 $9 X,Y pos of 4 corners*
0 Add a 4 corners polygon primitive as box body*
4,1,4,$2,$3,$4,$5,$6,$7,$8,$9,$2,$3,0*
0 Add four circle primitives for the rounded corners*
1,1,$1+$1,$2,$3*
1,1,$1+$1,$4,$5*
1,1,$1+$1,$6,$7*
1,1,$1+$1,$8,$9*
0 Add four rect primitives between the rounded corners*
20,1,$1+$1,$2,$3,$4,$5,0*
20,1,$1+$1,$4,$5,$6,$7,0*
20,1,$1+$1,$6,$7,$8,$9,0*
20,1,$1+$1,$8,$9,$2,$3,0*%
G04 Aperture macros list end*
%ADD10C,0.200000*%
%ADD11C,0.400000*%
%ADD12C,0.300000*%
%ADD13C,6.400000*%
%ADD14R,1.700000X1.700000*%
%ADD15O,1.700000X1.700000*%
%ADD16R,4.200000X1.350000*%
%ADD17R,1.600000X1.600000*%
%ADD18C,1.600000*%
%ADD19R,1.300000X1.300000*%
%ADD20C,1.300000*%
%ADD21RoundRect,0.250000X0.350000X0.625000X-0.350000X0.625000X-0.350000X-0.625000X0.350000X-0.625000X0*%
%ADD22O,1.200000X1.750000*%
G04 APERTURE END LIST*
D10*
G36*
X142384773Y-100500209D02*
G01*
X142384773Y-100368807D01*
X142421045Y-100362973D01*
X142456484Y-100356963D01*
X142491068Y-100350697D01*
X142524776Y-100344099D01*
X142557589Y-100337091D01*
X142589484Y-100329597D01*
X142620442Y-100321538D01*
X142650440Y-100312837D01*
X142679459Y-100303417D01*
X142707478Y-100293200D01*
X142734475Y-100282110D01*
X142760431Y-100270069D01*
X142785323Y-100256998D01*
X142809131Y-100242822D01*
X142831835Y-100227463D01*
X142853414Y-100210843D01*
X142873846Y-100192884D01*
X142893111Y-100173510D01*
X142911188Y-100152644D01*
X142928056Y-100130207D01*
X142943694Y-100106123D01*
X142958082Y-100080313D01*
X142971198Y-100052702D01*
X142983023Y-100023211D01*
X142993534Y-99991762D01*
X143002711Y-99958280D01*
X143010534Y-99922685D01*
X143016981Y-99884901D01*
X143022032Y-99844851D01*
X143025665Y-99802457D01*
X143027860Y-99757642D01*
X143028597Y-99710328D01*
X143028597Y-99284857D01*
X142228946Y-99284857D01*
X142228946Y-99438730D01*
X142229302Y-99463263D01*
X142230368Y-99486421D01*
X142232137Y-99508243D01*
X142234602Y-99528769D01*
X142241597Y-99566086D01*
X142251302Y-99598686D01*
X142263665Y-99626881D01*
X142278637Y-99650984D01*
X142296166Y-99671307D01*
X142316202Y-99688163D01*
X142338693Y-99701865D01*
X142363589Y-99712725D01*
X142390840Y-99721057D01*
X142420394Y-99727173D01*
X142452201Y-99731385D01*
X142486209Y-99734007D01*
X142522368Y-99735351D01*
X142560628Y-99735729D01*
X142560628Y-99867620D01*
X141772700Y-99867620D01*
X141772700Y-99735729D01*
X141810153Y-99735378D01*
X141845542Y-99734107D01*
X141878818Y-99731595D01*
X141909934Y-99727516D01*
X141938840Y-99721549D01*
X141965488Y-99713369D01*
X141989829Y-99702654D01*
X142011814Y-99689079D01*
X142031395Y-99672321D01*
X142048523Y-99652057D01*
X142063149Y-99627963D01*
X142075225Y-99599716D01*
X142084703Y-99566993D01*
X142091532Y-99529470D01*
X142093939Y-99508807D01*
X142095666Y-99486823D01*
X142096706Y-99463478D01*
X142097055Y-99438730D01*
X142097055Y-99284857D01*
X141384842Y-99284857D01*
X141384842Y-99710328D01*
X141385440Y-99751500D01*
X141387224Y-99790521D01*
X141390182Y-99827455D01*
X141394300Y-99862366D01*
X141399567Y-99895318D01*
X141405969Y-99926376D01*
X141413493Y-99955603D01*
X141422128Y-99983063D01*
X141431859Y-100008821D01*
X141442674Y-100032941D01*
X141454561Y-100055487D01*
X141467506Y-100076523D01*
X141481497Y-100096113D01*
X141496521Y-100114322D01*
X141512566Y-100131213D01*
X141529617Y-100146851D01*
X141547664Y-100161299D01*
X141566692Y-100174623D01*
X141586689Y-100186885D01*
X141607643Y-100198150D01*
X141629539Y-100208483D01*
X141652367Y-100217947D01*
X141676112Y-100226607D01*
X141700763Y-100234526D01*
X141726306Y-100241770D01*
X141752728Y-100248401D01*
X141780017Y-100254484D01*
X141808160Y-100260083D01*
X141837144Y-100265263D01*
X141866957Y-100270087D01*
X141897585Y-100274620D01*
X141929016Y-100278925D01*
X141929016Y-100410816D01*
X141252951Y-100323866D01*
X141252951Y-98584857D01*
X141384842Y-98584857D01*
X141384842Y-98887229D01*
X143028597Y-98887229D01*
X143028597Y-98584857D01*
X143160000Y-98584857D01*
X143160000Y-100371249D01*
X142384773Y-100500209D01*
G37*
G36*
X141954417Y-102711584D02*
G01*
X141284214Y-102652966D01*
X141284214Y-100768388D01*
X141954417Y-100709281D01*
X141954417Y-100841172D01*
X141925281Y-100843529D01*
X141896690Y-100845974D01*
X141868671Y-100848575D01*
X141841247Y-100851400D01*
X141814443Y-100854517D01*
X141788284Y-100857994D01*
X141762796Y-100861898D01*
X141738002Y-100866299D01*
X141713929Y-100871263D01*
X141690600Y-100876859D01*
X141668041Y-100883155D01*
X141646276Y-100890219D01*
X141625330Y-100898119D01*
X141605229Y-100906922D01*
X141585997Y-100916697D01*
X141567658Y-100927512D01*
X141550239Y-100939435D01*
X141533763Y-100952533D01*
X141518255Y-100966874D01*
X141503741Y-100982528D01*
X141490245Y-100999561D01*
X141477792Y-101018041D01*
X141466408Y-101038037D01*
X141456116Y-101059617D01*
X141446941Y-101082848D01*
X141438910Y-101107799D01*
X141432045Y-101134537D01*
X141426373Y-101163130D01*
X141421918Y-101193647D01*
X141418706Y-101226155D01*
X141416760Y-101260723D01*
X141416106Y-101297418D01*
X141416106Y-101512840D01*
X143028597Y-101512840D01*
X143028597Y-101084438D01*
X143160000Y-101084438D01*
X143158538Y-101114623D01*
X143157258Y-101148094D01*
X143156149Y-101184404D01*
X143155199Y-101223107D01*
X143154779Y-101243216D01*
X143154394Y-101263756D01*
X143154042Y-101284671D01*
X143153723Y-101305905D01*
X143153433Y-101327403D01*
X143153173Y-101349108D01*
X143152940Y-101370964D01*
X143152733Y-101392917D01*
X143152551Y-101414909D01*
X143152391Y-101436886D01*
X143152252Y-101458792D01*
X143152133Y-101480569D01*
X143152033Y-101502164D01*
X143151949Y-101523520D01*
X143151880Y-101544581D01*
X143151825Y-101565291D01*
X143151782Y-101585595D01*
X143151750Y-101605437D01*
X143151711Y-101643510D01*
X143151697Y-101679064D01*
X143151695Y-101711654D01*
X143151697Y-101744329D01*
X143151711Y-101779959D01*
X143151750Y-101818097D01*
X143151782Y-101837968D01*
X143151825Y-101858299D01*
X143151880Y-101879034D01*
X143151949Y-101900117D01*
X143152033Y-101921494D01*
X143152133Y-101943107D01*
X143152252Y-101964902D01*
X143152391Y-101986823D01*
X143152551Y-102008813D01*
X143152733Y-102030818D01*
X143152940Y-102052781D01*
X143153173Y-102074647D01*
X143153433Y-102096360D01*
X143153723Y-102117865D01*
X143154042Y-102139105D01*
X143154394Y-102160025D01*
X143154779Y-102180569D01*
X143155199Y-102200681D01*
X143155655Y-102220307D01*
X143156683Y-102257872D01*
X143157876Y-102292820D01*
X143159245Y-102324704D01*
X143160000Y-102339358D01*
X143028597Y-102339358D01*
X143028597Y-101910467D01*
X141416106Y-101910467D01*
X141416106Y-102123447D01*
X141416753Y-102159919D01*
X141418679Y-102194275D01*
X141421860Y-102226584D01*
X141426273Y-102256914D01*
X141431894Y-102285334D01*
X141438700Y-102311912D01*
X141446667Y-102336715D01*
X141455772Y-102359813D01*
X141465991Y-102381274D01*
X141477300Y-102401166D01*
X141489677Y-102419558D01*
X141503097Y-102436517D01*
X141517537Y-102452112D01*
X141532974Y-102466412D01*
X141549383Y-102479485D01*
X141566742Y-102491399D01*
X141585027Y-102502222D01*
X141604215Y-102512024D01*
X141624281Y-102520871D01*
X141645202Y-102528833D01*
X141666956Y-102535978D01*
X141689518Y-102542374D01*
X141712864Y-102548089D01*
X141736972Y-102553192D01*
X141761818Y-102557752D01*
X141787377Y-102561836D01*
X141813628Y-102565513D01*
X141840545Y-102568851D01*
X141868106Y-102571918D01*
X141896288Y-102574784D01*
X141925066Y-102577515D01*
X141954417Y-102580181D01*
X141954417Y-102711584D01*
G37*
G36*
X143160000Y-105239009D02*
G01*
X143028597Y-105239009D01*
X143028597Y-104936636D01*
X141384842Y-104936636D01*
X141384842Y-105239009D01*
X141252951Y-105239009D01*
X141254499Y-105217237D01*
X141255854Y-105191988D01*
X141257028Y-105163734D01*
X141258035Y-105132946D01*
X141258887Y-105100098D01*
X141259597Y-105065661D01*
X141260179Y-105030108D01*
X141260645Y-104993911D01*
X141261008Y-104957542D01*
X141261280Y-104921474D01*
X141261476Y-104886179D01*
X141261607Y-104852128D01*
X141261686Y-104819795D01*
X141261727Y-104789652D01*
X141261742Y-104762170D01*
X141261744Y-104737823D01*
X141261742Y-104713561D01*
X141261727Y-104686154D01*
X141261686Y-104656073D01*
X141261607Y-104623792D01*
X141261476Y-104589781D01*
X141261280Y-104554515D01*
X141261008Y-104518463D01*
X141260645Y-104482100D01*
X141260179Y-104445898D01*
X141259597Y-104410327D01*
X141258887Y-104375862D01*
X141258035Y-104342974D01*
X141257028Y-104312135D01*
X141255854Y-104283817D01*
X141254499Y-104258494D01*
X141252951Y-104236636D01*
X141384842Y-104236636D01*
X141384842Y-104539009D01*
X142097055Y-104539009D01*
X142097055Y-103640195D01*
X141384842Y-103640195D01*
X141384842Y-103942568D01*
X141252951Y-103942568D01*
X141254499Y-103920716D01*
X141255854Y-103895407D01*
X141257028Y-103867112D01*
X141258035Y-103836299D01*
X141258887Y-103803441D01*
X141259597Y-103769006D01*
X141260179Y-103733464D01*
X141260645Y-103697287D01*
X141261008Y-103660944D01*
X141261280Y-103624904D01*
X141261476Y-103589639D01*
X141261607Y-103555619D01*
X141261686Y-103523312D01*
X141261727Y-103493191D01*
X141261742Y-103465724D01*
X141261744Y-103441382D01*
X141261742Y-103417120D01*
X141261727Y-103389713D01*
X141261686Y-103359632D01*
X141261607Y-103327351D01*
X141261476Y-103293340D01*
X141261280Y-103258074D01*
X141261008Y-103222022D01*
X141260645Y-103185659D01*
X141260179Y-103149457D01*
X141259597Y-103113886D01*
X141258887Y-103079421D01*
X141258035Y-103046532D01*
X141257028Y-103015693D01*
X141255854Y-102987376D01*
X141254499Y-102962053D01*
X141252951Y-102940195D01*
X141384842Y-102940195D01*
X141384842Y-103242568D01*
X143028597Y-103242568D01*
X143028597Y-102940195D01*
X143160000Y-102940195D01*
X143158538Y-102962053D01*
X143157258Y-102987376D01*
X143156149Y-103015693D01*
X143155199Y-103046532D01*
X143154394Y-103079421D01*
X143153723Y-103113886D01*
X143153173Y-103149457D01*
X143152733Y-103185659D01*
X143152391Y-103222022D01*
X143152133Y-103258074D01*
X143151949Y-103293340D01*
X143151825Y-103327351D01*
X143151750Y-103359632D01*
X143151711Y-103389713D01*
X143151697Y-103417120D01*
X143151695Y-103441382D01*
X143151697Y-103465724D01*
X143151711Y-103493191D01*
X143151750Y-103523312D01*
X143151825Y-103555619D01*
X143151949Y-103589639D01*
X143152133Y-103624904D01*
X143152391Y-103660944D01*
X143152733Y-103697287D01*
X143153173Y-103733464D01*
X143153723Y-103769006D01*
X143154394Y-103803441D01*
X143155199Y-103836299D01*
X143156149Y-103867112D01*
X143157258Y-103895407D01*
X143158538Y-103920716D01*
X143160000Y-103942568D01*
X143028597Y-103942568D01*
X143028597Y-103640195D01*
X142228946Y-103640195D01*
X142228946Y-104539009D01*
X143028597Y-104539009D01*
X143028597Y-104236636D01*
X143160000Y-104236636D01*
X143158538Y-104258494D01*
X143157258Y-104283817D01*
X143156149Y-104312135D01*
X143155199Y-104342974D01*
X143154394Y-104375862D01*
X143153723Y-104410327D01*
X143153173Y-104445898D01*
X143152733Y-104482100D01*
X143152391Y-104518463D01*
X143152133Y-104554515D01*
X143151949Y-104589781D01*
X143151825Y-104623792D01*
X143151750Y-104656073D01*
X143151711Y-104686154D01*
X143151697Y-104713561D01*
X143151695Y-104737823D01*
X143151697Y-104762170D01*
X143151711Y-104789652D01*
X143151750Y-104819795D01*
X143151825Y-104852128D01*
X143151949Y-104886179D01*
X143152133Y-104921474D01*
X143152391Y-104957542D01*
X143152733Y-104993911D01*
X143153173Y-105030108D01*
X143153723Y-105065661D01*
X143154394Y-105100098D01*
X143155199Y-105132946D01*
X143156149Y-105163734D01*
X143157258Y-105191988D01*
X143158538Y-105217237D01*
X143160000Y-105239009D01*
G37*
G36*
X142370607Y-108226587D02*
G01*
X142370607Y-108094696D01*
X142399581Y-108092568D01*
X142428665Y-108090242D01*
X142457792Y-108087624D01*
X142486894Y-108084619D01*
X142515903Y-108081133D01*
X142544752Y-108077070D01*
X142573373Y-108072336D01*
X142601699Y-108066837D01*
X142629662Y-108060478D01*
X142657194Y-108053164D01*
X142684229Y-108044801D01*
X142710699Y-108035294D01*
X142736535Y-108024548D01*
X142761671Y-108012469D01*
X142786039Y-107998962D01*
X142809572Y-107983932D01*
X142832202Y-107967285D01*
X142853861Y-107948927D01*
X142874482Y-107928762D01*
X142893997Y-107906696D01*
X142912339Y-107882634D01*
X142929441Y-107856482D01*
X142945234Y-107828146D01*
X142959652Y-107797529D01*
X142972626Y-107764538D01*
X142984089Y-107729079D01*
X142993975Y-107691056D01*
X143002214Y-107650375D01*
X143008740Y-107606941D01*
X143013485Y-107560660D01*
X143016381Y-107511436D01*
X143017362Y-107459176D01*
X143017362Y-107067411D01*
X141390704Y-108184578D01*
X141372389Y-108196333D01*
X141354254Y-108204734D01*
X141333643Y-108207004D01*
X141323293Y-108207048D01*
X141300075Y-108205610D01*
X141279070Y-108199799D01*
X141263498Y-108187014D01*
X141255809Y-108167978D01*
X141253415Y-108147410D01*
X141252953Y-108122625D01*
X141252951Y-108117167D01*
X141252951Y-106678088D01*
X141923642Y-106644382D01*
X141923642Y-106776273D01*
X141889605Y-106778821D01*
X141856733Y-106782345D01*
X141825021Y-106786854D01*
X141794463Y-106792355D01*
X141765053Y-106798855D01*
X141736786Y-106806361D01*
X141709656Y-106814880D01*
X141683658Y-106824420D01*
X141658787Y-106834987D01*
X141635036Y-106846589D01*
X141612401Y-106859232D01*
X141590875Y-106872925D01*
X141570453Y-106887674D01*
X141551130Y-106903486D01*
X141532899Y-106920368D01*
X141515757Y-106938329D01*
X141499696Y-106957374D01*
X141484711Y-106977510D01*
X141470798Y-106998746D01*
X141457949Y-107021089D01*
X141446161Y-107044544D01*
X141435426Y-107069121D01*
X141425740Y-107094825D01*
X141417098Y-107121663D01*
X141409493Y-107149644D01*
X141402920Y-107178774D01*
X141397373Y-107209061D01*
X141392847Y-107240510D01*
X141389337Y-107273131D01*
X141386836Y-107306929D01*
X141385340Y-107341912D01*
X141384842Y-107378088D01*
X141384842Y-107742010D01*
X143014431Y-106621912D01*
X143031027Y-106611494D01*
X143050016Y-106602811D01*
X143069744Y-106599677D01*
X143087215Y-106599442D01*
X143111240Y-106600779D01*
X143132974Y-106606274D01*
X143149087Y-106618621D01*
X143157043Y-106637427D01*
X143159520Y-106658173D01*
X143159982Y-106678171D01*
X143160000Y-106689323D01*
X143160000Y-108176273D01*
X142370607Y-108226587D01*
G37*
G36*
X143174654Y-110110188D02*
G01*
X143043251Y-110110188D01*
X143043225Y-110079438D01*
X143043037Y-110052088D01*
X143042527Y-110027942D01*
X143041534Y-110006805D01*
X143038787Y-109980314D01*
X143034048Y-109959493D01*
X143023690Y-109939416D01*
X143007536Y-109926685D01*
X142984299Y-109919739D01*
X142961447Y-109917386D01*
X142933342Y-109916748D01*
X141909476Y-109916748D01*
X141931946Y-109404326D01*
X142063838Y-109404326D01*
X142063864Y-109435157D01*
X142064052Y-109462567D01*
X142064562Y-109486754D01*
X142065555Y-109507916D01*
X142068302Y-109534418D01*
X142073041Y-109555224D01*
X142083399Y-109575257D01*
X142099553Y-109587928D01*
X142122790Y-109594817D01*
X142145642Y-109597140D01*
X142173747Y-109597767D01*
X142711081Y-109597767D01*
X142732456Y-109597351D01*
X142753340Y-109596115D01*
X142773721Y-109594072D01*
X142793588Y-109591238D01*
X142812927Y-109587627D01*
X142849973Y-109578134D01*
X142884762Y-109565711D01*
X142917195Y-109550477D01*
X142947173Y-109532548D01*
X142974596Y-109512044D01*
X142999368Y-109489083D01*
X143021388Y-109463782D01*
X143040558Y-109436259D01*
X143056779Y-109406633D01*
X143069952Y-109375022D01*
X143079979Y-109341544D01*
X143086762Y-109306316D01*
X143090200Y-109269458D01*
X143090635Y-109250453D01*
X143090430Y-109230857D01*
X143088783Y-109195151D01*
X143085472Y-109163854D01*
X143080479Y-109136674D01*
X143073786Y-109113324D01*
X143065376Y-109093512D01*
X143049501Y-109069795D01*
X143029660Y-109052411D01*
X143005794Y-109040381D01*
X142977841Y-109032726D01*
X142956906Y-109029572D01*
X142934110Y-109027637D01*
X142909435Y-109026633D01*
X142882864Y-109026270D01*
X142868862Y-109026239D01*
X141909476Y-109026239D01*
X141931946Y-108513817D01*
X142063838Y-108513817D01*
X142063864Y-108544647D01*
X142064052Y-108572058D01*
X142064562Y-108596245D01*
X142065555Y-108617407D01*
X142068302Y-108643909D01*
X142073041Y-108664715D01*
X142083399Y-108684747D01*
X142099553Y-108697418D01*
X142122790Y-108704308D01*
X142145642Y-108706631D01*
X142173747Y-108707257D01*
X142829295Y-108707257D01*
X142856765Y-108707916D01*
X142882867Y-108709871D01*
X142907635Y-108713089D01*
X142931101Y-108717538D01*
X142953297Y-108723187D01*
X142974256Y-108730003D01*
X142994010Y-108737954D01*
X143012591Y-108747008D01*
X143030033Y-108757132D01*
X143046367Y-108768294D01*
X143075844Y-108793605D01*
X143101280Y-108822682D01*
X143122936Y-108855269D01*
X143132427Y-108872797D01*
X143141071Y-108891106D01*
X143148900Y-108910164D01*
X143155946Y-108929938D01*
X143162241Y-108950396D01*
X143167819Y-108971506D01*
X143172712Y-108993236D01*
X143176951Y-109015553D01*
X143180571Y-109038425D01*
X143183602Y-109061821D01*
X143186078Y-109085707D01*
X143188031Y-109110052D01*
X143189494Y-109134823D01*
X143190498Y-109159989D01*
X143191077Y-109185517D01*
X143191263Y-109211375D01*
X143191083Y-109235079D01*
X143189823Y-109264584D01*
X143187851Y-109286983D01*
X143184599Y-109311220D01*
X143179748Y-109336997D01*
X143172978Y-109364020D01*
X143163968Y-109391992D01*
X143152400Y-109420617D01*
X143137954Y-109449597D01*
X143120308Y-109478638D01*
X143099145Y-109507443D01*
X143074143Y-109535715D01*
X143060103Y-109549559D01*
X143044983Y-109563159D01*
X143028744Y-109576477D01*
X143011345Y-109589478D01*
X142992747Y-109602123D01*
X142972909Y-109614375D01*
X143191263Y-109614375D01*
X143174654Y-110110188D01*
G37*
G36*
X141463489Y-109119051D02*
G01*
X141443337Y-109118048D01*
X141423796Y-109115101D01*
X141395838Y-109107244D01*
X141369787Y-109095545D01*
X141345967Y-109080323D01*
X141324698Y-109061898D01*
X141306301Y-109040587D01*
X141291097Y-109016711D01*
X141279408Y-108990586D01*
X141271555Y-108962533D01*
X141268609Y-108942917D01*
X141267606Y-108922680D01*
X141268609Y-108902528D01*
X141271555Y-108882987D01*
X141279408Y-108855028D01*
X141291097Y-108828978D01*
X141306301Y-108805158D01*
X141324698Y-108783889D01*
X141345967Y-108765492D01*
X141369787Y-108750288D01*
X141395838Y-108738599D01*
X141423796Y-108730746D01*
X141443337Y-108727800D01*
X141463489Y-108726797D01*
X141483238Y-108727800D01*
X141511878Y-108732917D01*
X141539021Y-108742085D01*
X141564309Y-108754981D01*
X141587385Y-108771285D01*
X141607892Y-108790675D01*
X141625471Y-108812830D01*
X141639766Y-108837430D01*
X141650420Y-108864152D01*
X141657074Y-108892675D01*
X141659112Y-108912534D01*
X141659371Y-108922680D01*
X141658342Y-108942917D01*
X141655322Y-108962533D01*
X141647295Y-108990586D01*
X141635388Y-109016711D01*
X141619959Y-109040587D01*
X141601364Y-109061898D01*
X141579961Y-109080323D01*
X141556108Y-109095545D01*
X141530162Y-109107244D01*
X141502480Y-109115101D01*
X141473420Y-109118798D01*
X141463489Y-109119051D01*
G37*
G36*
X141463489Y-109838590D02*
G01*
X141443337Y-109837587D01*
X141423796Y-109834641D01*
X141395838Y-109826788D01*
X141369787Y-109815099D01*
X141345967Y-109799896D01*
X141324698Y-109781498D01*
X141306301Y-109760229D01*
X141291097Y-109736409D01*
X141279408Y-109710359D01*
X141271555Y-109682400D01*
X141268609Y-109662859D01*
X141267606Y-109642707D01*
X141268609Y-109622470D01*
X141271555Y-109602854D01*
X141279408Y-109574801D01*
X141291097Y-109548676D01*
X141306301Y-109524800D01*
X141324698Y-109503489D01*
X141345967Y-109485064D01*
X141369787Y-109469842D01*
X141395838Y-109458143D01*
X141423796Y-109450286D01*
X141443337Y-109447339D01*
X141463489Y-109446336D01*
X141483238Y-109447339D01*
X141511878Y-109452459D01*
X141539021Y-109461632D01*
X141564309Y-109474540D01*
X141587385Y-109490865D01*
X141607892Y-109510288D01*
X141625471Y-109532489D01*
X141639766Y-109557151D01*
X141650420Y-109583953D01*
X141657074Y-109612578D01*
X141659112Y-109632517D01*
X141659371Y-109642707D01*
X141658342Y-109662859D01*
X141655322Y-109682400D01*
X141647295Y-109710359D01*
X141635388Y-109736409D01*
X141619959Y-109760229D01*
X141601364Y-109781498D01*
X141579961Y-109799896D01*
X141556108Y-109815099D01*
X141530162Y-109826788D01*
X141502480Y-109834641D01*
X141473420Y-109838337D01*
X141463489Y-109838590D01*
G37*
G36*
X142139553Y-111413468D02*
G01*
X142112497Y-111411737D01*
X142087031Y-111406698D01*
X142063177Y-111398579D01*
X142040955Y-111387609D01*
X142020388Y-111374017D01*
X142001497Y-111358033D01*
X141984302Y-111339884D01*
X141968827Y-111319801D01*
X141955092Y-111298012D01*
X141943119Y-111274746D01*
X141932928Y-111250232D01*
X141924543Y-111224699D01*
X141917983Y-111198376D01*
X141913271Y-111171492D01*
X141910429Y-111144276D01*
X141909476Y-111116957D01*
X141911094Y-111081119D01*
X141915845Y-111047207D01*
X141923576Y-111015167D01*
X141934137Y-110984944D01*
X141947374Y-110956485D01*
X141963134Y-110929734D01*
X141981266Y-110904637D01*
X142001617Y-110881141D01*
X142024034Y-110859190D01*
X142048365Y-110838730D01*
X142074458Y-110819708D01*
X142102161Y-110802067D01*
X142131320Y-110785755D01*
X142161784Y-110770716D01*
X142193399Y-110756897D01*
X142226015Y-110744243D01*
X141909476Y-110744243D01*
X141934389Y-110279693D01*
X142065792Y-110279693D01*
X142065818Y-110310437D01*
X142066002Y-110337772D01*
X142066503Y-110361894D01*
X142067478Y-110383000D01*
X142070177Y-110409434D01*
X142074832Y-110430189D01*
X142085005Y-110450176D01*
X142100872Y-110462821D01*
X142123696Y-110469698D01*
X142146142Y-110472019D01*
X142173747Y-110472645D01*
X143028597Y-110472645D01*
X143028597Y-110279693D01*
X143160000Y-110279693D01*
X143151695Y-110632379D01*
X143151697Y-110653162D01*
X143151711Y-110675429D01*
X143151750Y-110698958D01*
X143151825Y-110723528D01*
X143151949Y-110748916D01*
X143152133Y-110774901D01*
X143152391Y-110801261D01*
X143152733Y-110827774D01*
X143153173Y-110854218D01*
X143153723Y-110880372D01*
X143154394Y-110906013D01*
X143155199Y-110930921D01*
X143156149Y-110954872D01*
X143157258Y-110977645D01*
X143158538Y-110999019D01*
X143160000Y-111018772D01*
X143028597Y-111018772D01*
X143028597Y-110775017D01*
X142544508Y-110775017D01*
X142506661Y-110775876D01*
X142486688Y-110776987D01*
X142466132Y-110778587D01*
X142445083Y-110780700D01*
X142423629Y-110783354D01*
X142401857Y-110786573D01*
X142379857Y-110790382D01*
X142357717Y-110794807D01*
X142335525Y-110799874D01*
X142313369Y-110805608D01*
X142291338Y-110812034D01*
X142269521Y-110819179D01*
X142248005Y-110827067D01*
X142226879Y-110835724D01*
X142206231Y-110845176D01*
X142186150Y-110855448D01*
X142166724Y-110866565D01*
X142148042Y-110878553D01*
X142130192Y-110891438D01*
X142113261Y-110905245D01*
X142097339Y-110919999D01*
X142082515Y-110935726D01*
X142068875Y-110952452D01*
X142056509Y-110970202D01*
X142045506Y-110989001D01*
X142035952Y-111008875D01*
X142027938Y-111029849D01*
X142021550Y-111051950D01*
X142016879Y-111075202D01*
X142014011Y-111099630D01*
X142013035Y-111125262D01*
X142029257Y-111110712D01*
X142046802Y-111098639D01*
X142065104Y-111088864D01*
X142087018Y-111080336D01*
X142112378Y-111074304D01*
X142133560Y-111072169D01*
X142141018Y-111072017D01*
X142161587Y-111073040D01*
X142189895Y-111078193D01*
X142215161Y-111087259D01*
X142237401Y-111099757D01*
X142256628Y-111115207D01*
X142272858Y-111133129D01*
X142286104Y-111153041D01*
X142296382Y-111174464D01*
X142303705Y-111196916D01*
X142308088Y-111219917D01*
X142309546Y-111242987D01*
X142308018Y-111265931D01*
X142303454Y-111288831D01*
X142295882Y-111311202D01*
X142285332Y-111332563D01*
X142271832Y-111352429D01*
X142255411Y-111370318D01*
X142236099Y-111385747D01*
X142213925Y-111398233D01*
X142188917Y-111407293D01*
X142161104Y-111412444D01*
X142141018Y-111413468D01*
X142139553Y-111413468D01*
G37*
G36*
X143160000Y-112303489D02*
G01*
X143028597Y-112303489D01*
X143028597Y-112130077D01*
X141909476Y-112130077D01*
X141934389Y-111642568D01*
X142065792Y-111642568D01*
X142065818Y-111671851D01*
X142066002Y-111697906D01*
X142066503Y-111720919D01*
X142067478Y-111741074D01*
X142070177Y-111766352D01*
X142074832Y-111786238D01*
X142085005Y-111805442D01*
X142100872Y-111817645D01*
X142123696Y-111824324D01*
X142146142Y-111826596D01*
X142173747Y-111827215D01*
X143028597Y-111827215D01*
X143028597Y-111634264D01*
X143160000Y-111634264D01*
X143151695Y-111975715D01*
X143160000Y-112303489D01*
G37*
G36*
X141471793Y-112169155D02*
G01*
X141449452Y-112168023D01*
X141427748Y-112164702D01*
X141406793Y-112159302D01*
X141386697Y-112151936D01*
X141367572Y-112142716D01*
X141349527Y-112131752D01*
X141332675Y-112119157D01*
X141317126Y-112105042D01*
X141302991Y-112089518D01*
X141290381Y-112072699D01*
X141279406Y-112054694D01*
X141270178Y-112035616D01*
X141262808Y-112015576D01*
X141257406Y-111994686D01*
X141254083Y-111973058D01*
X141252951Y-111950802D01*
X141254083Y-111928467D01*
X141257406Y-111906779D01*
X141262808Y-111885847D01*
X141270178Y-111865783D01*
X141279406Y-111846694D01*
X141290381Y-111828691D01*
X141302991Y-111811883D01*
X141317126Y-111796380D01*
X141332675Y-111782290D01*
X141349527Y-111769724D01*
X141367572Y-111758791D01*
X141386697Y-111749600D01*
X141406793Y-111742261D01*
X141427748Y-111736883D01*
X141449452Y-111733576D01*
X141471793Y-111732449D01*
X141494048Y-111733576D01*
X141515677Y-111736883D01*
X141536566Y-111742261D01*
X141556606Y-111749600D01*
X141575684Y-111758791D01*
X141593689Y-111769724D01*
X141610509Y-111782290D01*
X141626032Y-111796380D01*
X141640147Y-111811883D01*
X141652743Y-111828691D01*
X141663706Y-111846694D01*
X141672927Y-111865783D01*
X141680293Y-111885847D01*
X141685692Y-111906779D01*
X141689014Y-111928467D01*
X141690146Y-111950802D01*
X141689014Y-111973058D01*
X141685692Y-111994686D01*
X141680293Y-112015576D01*
X141672927Y-112035616D01*
X141663706Y-112054694D01*
X141652743Y-112072699D01*
X141640147Y-112089518D01*
X141626032Y-112105042D01*
X141610509Y-112119157D01*
X141593689Y-112131752D01*
X141575684Y-112142716D01*
X141556606Y-112151936D01*
X141536566Y-112159302D01*
X141515677Y-112164702D01*
X141494048Y-112168023D01*
X141471793Y-112169155D01*
G37*
G36*
X142841018Y-113734264D02*
G01*
X142820063Y-113729120D01*
X142806968Y-113713464D01*
X142801854Y-113691987D01*
X142800972Y-113672198D01*
X142800963Y-113666853D01*
X142801459Y-113646515D01*
X142804646Y-113627148D01*
X142817312Y-113611220D01*
X142837268Y-113601980D01*
X142843949Y-113599442D01*
X142876378Y-113585086D01*
X142905958Y-113569366D01*
X142932793Y-113552360D01*
X142956988Y-113534145D01*
X142978647Y-113514799D01*
X142997874Y-113494401D01*
X143014774Y-113473028D01*
X143029452Y-113450759D01*
X143042011Y-113427671D01*
X143052557Y-113403842D01*
X143061194Y-113379351D01*
X143068027Y-113354275D01*
X143073159Y-113328693D01*
X143076696Y-113302682D01*
X143078741Y-113276320D01*
X143079399Y-113249686D01*
X143078183Y-113214316D01*
X143074622Y-113181155D01*
X143068846Y-113150133D01*
X143060986Y-113121179D01*
X143051172Y-113094220D01*
X143039536Y-113069187D01*
X143026207Y-113046006D01*
X143011317Y-113024608D01*
X142994995Y-113004921D01*
X142977373Y-112986874D01*
X142958581Y-112970395D01*
X142938750Y-112955412D01*
X142918010Y-112941856D01*
X142896492Y-112929654D01*
X142874326Y-112918735D01*
X142851643Y-112909028D01*
X142828574Y-112900462D01*
X142805249Y-112892965D01*
X142781798Y-112886466D01*
X142758354Y-112880893D01*
X142735045Y-112876177D01*
X142712002Y-112872244D01*
X142689357Y-112869024D01*
X142667240Y-112866446D01*
X142645780Y-112864438D01*
X142625110Y-112862929D01*
X142605359Y-112861848D01*
X142569138Y-112860684D01*
X142538163Y-112860375D01*
X142524968Y-112860363D01*
X142492402Y-112860451D01*
X142455723Y-112861069D01*
X142436110Y-112861742D01*
X142415791Y-112862746D01*
X142394872Y-112864147D01*
X142373461Y-112866011D01*
X142351665Y-112868405D01*
X142329592Y-112871394D01*
X142307347Y-112875046D01*
X142285040Y-112879425D01*
X142262775Y-112884599D01*
X142240662Y-112890633D01*
X142218807Y-112897594D01*
X142197316Y-112905548D01*
X142176298Y-112914560D01*
X142155860Y-112924698D01*
X142136108Y-112936028D01*
X142117149Y-112948615D01*
X142099092Y-112962525D01*
X142082043Y-112977826D01*
X142066108Y-112994583D01*
X142051396Y-113012862D01*
X142038014Y-113032730D01*
X142026068Y-113054252D01*
X142015667Y-113077495D01*
X142006916Y-113102526D01*
X141999923Y-113129409D01*
X141994795Y-113158213D01*
X141991640Y-113189001D01*
X141990565Y-113221842D01*
X141990777Y-113248037D01*
X141991389Y-113271793D01*
X141992362Y-113293298D01*
X141994152Y-113318796D01*
X141996424Y-113341073D01*
X141999085Y-113360578D01*
X142002819Y-113381738D01*
X142007662Y-113403559D01*
X142024903Y-113386720D01*
X142042917Y-113373631D01*
X142061148Y-113363828D01*
X142083397Y-113355489D01*
X142104034Y-113350653D01*
X142125144Y-113348201D01*
X142136133Y-113347871D01*
X142158400Y-113348987D01*
X142179053Y-113352217D01*
X142198118Y-113357387D01*
X142223791Y-113368393D01*
X142246026Y-113382776D01*
X142264905Y-113399945D01*
X142280512Y-113419307D01*
X142292927Y-113440271D01*
X142302234Y-113462246D01*
X142308514Y-113484639D01*
X142311849Y-113506859D01*
X142312477Y-113521284D01*
X142310931Y-113545727D01*
X142306291Y-113569846D01*
X142298556Y-113593185D01*
X142287721Y-113615291D01*
X142273787Y-113635709D01*
X142256748Y-113653986D01*
X142236604Y-113669668D01*
X142213352Y-113682301D01*
X142186990Y-113691430D01*
X142167686Y-113695346D01*
X142146997Y-113697368D01*
X142136133Y-113697627D01*
X142114205Y-113696690D01*
X142093550Y-113693939D01*
X142074131Y-113689464D01*
X142038845Y-113675695D01*
X142008047Y-113656097D01*
X141981433Y-113631386D01*
X141958701Y-113602275D01*
X141939547Y-113569478D01*
X141923669Y-113533709D01*
X141916864Y-113514934D01*
X141910765Y-113495683D01*
X141905334Y-113476046D01*
X141900532Y-113456113D01*
X141896322Y-113435973D01*
X141892667Y-113415714D01*
X141889528Y-113395427D01*
X141886867Y-113375200D01*
X141884647Y-113355122D01*
X141882830Y-113335284D01*
X141881378Y-113315774D01*
X141879418Y-113278096D01*
X141878464Y-113242802D01*
X141878213Y-113210607D01*
X141881677Y-113164478D01*
X141886814Y-113120054D01*
X141893570Y-113077318D01*
X141901891Y-113036256D01*
X141911724Y-112996850D01*
X141923016Y-112959086D01*
X141935713Y-112922948D01*
X141949761Y-112888420D01*
X141965107Y-112855486D01*
X141981698Y-112824131D01*
X141999480Y-112794338D01*
X142018399Y-112766093D01*
X142038402Y-112739378D01*
X142059436Y-112714180D01*
X142081447Y-112690481D01*
X142104382Y-112668266D01*
X142128187Y-112647519D01*
X142152808Y-112628225D01*
X142178193Y-112610368D01*
X142204287Y-112593932D01*
X142231037Y-112578901D01*
X142258390Y-112565260D01*
X142286292Y-112552993D01*
X142314690Y-112542084D01*
X142343530Y-112532517D01*
X142372759Y-112524277D01*
X142402323Y-112517348D01*
X142432169Y-112511714D01*
X142462243Y-112507359D01*
X142492492Y-112504268D01*
X142522862Y-112502425D01*
X142553300Y-112501814D01*
X142587880Y-112502583D01*
X142621806Y-112504876D01*
X142655050Y-112508678D01*
X142687582Y-112513970D01*
X142719374Y-112520735D01*
X142750396Y-112528956D01*
X142780620Y-112538614D01*
X142810015Y-112549693D01*
X142838553Y-112562176D01*
X142866204Y-112576044D01*
X142892940Y-112591281D01*
X142918731Y-112607868D01*
X142943549Y-112625789D01*
X142967363Y-112645026D01*
X142990145Y-112665561D01*
X143011866Y-112687378D01*
X143032497Y-112710458D01*
X143052007Y-112734784D01*
X143070369Y-112760340D01*
X143087553Y-112787106D01*
X143103530Y-112815067D01*
X143118270Y-112844203D01*
X143131745Y-112874499D01*
X143143925Y-112905937D01*
X143154782Y-112938499D01*
X143164285Y-112972167D01*
X143172407Y-113006925D01*
X143179117Y-113042754D01*
X143184387Y-113079638D01*
X143188187Y-113117558D01*
X143190489Y-113156499D01*
X143191263Y-113196441D01*
X143190332Y-113237910D01*
X143187615Y-113277265D01*
X143183228Y-113314558D01*
X143177286Y-113349842D01*
X143169904Y-113383167D01*
X143161197Y-113414588D01*
X143151281Y-113444156D01*
X143140269Y-113471924D01*
X143128278Y-113497943D01*
X143115423Y-113522267D01*
X143101818Y-113544947D01*
X143087579Y-113566037D01*
X143072820Y-113585587D01*
X143057658Y-113603651D01*
X143042207Y-113620281D01*
X143026582Y-113635528D01*
X143010898Y-113649447D01*
X142995271Y-113662088D01*
X142964646Y-113683748D01*
X142935629Y-113700928D01*
X142909139Y-113714045D01*
X142886099Y-113723519D01*
X142867428Y-113729767D01*
X142846880Y-113734264D01*
X142841018Y-113734264D01*
G37*
G36*
X143160000Y-115458130D02*
G01*
X143028597Y-115458130D01*
X143028597Y-115264689D01*
X142310034Y-115264689D01*
X142283270Y-115264248D01*
X142257558Y-115262926D01*
X142232884Y-115260728D01*
X142209235Y-115257657D01*
X142186597Y-115253718D01*
X142164958Y-115248915D01*
X142144305Y-115243251D01*
X142124624Y-115236731D01*
X142105901Y-115229359D01*
X142088124Y-115221139D01*
X142055354Y-115202170D01*
X142026208Y-115179856D01*
X142000579Y-115154231D01*
X141978362Y-115125325D01*
X141959450Y-115093171D01*
X141943739Y-115057801D01*
X141937051Y-115038921D01*
X141931122Y-115019248D01*
X141925941Y-114998788D01*
X141921493Y-114977544D01*
X141917766Y-114955520D01*
X141914746Y-114932720D01*
X141912421Y-114909149D01*
X141910776Y-114884810D01*
X141909799Y-114859707D01*
X141909476Y-114833845D01*
X141909945Y-114808981D01*
X141911323Y-114784850D01*
X141913572Y-114761443D01*
X141916651Y-114738753D01*
X141920520Y-114716771D01*
X141925138Y-114695489D01*
X141930467Y-114674898D01*
X141936465Y-114654990D01*
X141943093Y-114635757D01*
X141950310Y-114617191D01*
X141966354Y-114582024D01*
X141984275Y-114549423D01*
X142003754Y-114519321D01*
X142024469Y-114491652D01*
X142046099Y-114466350D01*
X142068326Y-114443348D01*
X142090826Y-114422578D01*
X142113282Y-114403976D01*
X142135370Y-114387473D01*
X142156772Y-114373004D01*
X142177166Y-114360502D01*
X142177166Y-114357571D01*
X141221688Y-114357571D01*
X141252951Y-113861758D01*
X141384842Y-113861758D01*
X141384869Y-113892589D01*
X141385054Y-113919999D01*
X141385557Y-113944186D01*
X141386537Y-113965348D01*
X141389247Y-113991850D01*
X141393924Y-114012656D01*
X141404143Y-114032689D01*
X141420081Y-114045360D01*
X141443009Y-114052249D01*
X141465556Y-114054572D01*
X141493286Y-114055199D01*
X143028597Y-114055199D01*
X143028597Y-113861758D01*
X143160000Y-113861758D01*
X143151695Y-114214934D01*
X143160000Y-114567620D01*
X143028597Y-114567620D01*
X143028597Y-114374180D01*
X142448764Y-114374180D01*
X142420904Y-114374876D01*
X142394014Y-114376928D01*
X142368089Y-114380279D01*
X142343123Y-114384873D01*
X142319110Y-114390656D01*
X142296045Y-114397570D01*
X142273923Y-114405561D01*
X142252737Y-114414572D01*
X142232481Y-114424547D01*
X142213152Y-114435431D01*
X142194742Y-114447169D01*
X142177245Y-114459703D01*
X142160658Y-114472979D01*
X142144973Y-114486940D01*
X142130185Y-114501531D01*
X142116289Y-114516696D01*
X142103278Y-114532378D01*
X142091148Y-114548524D01*
X142079892Y-114565075D01*
X142069506Y-114581977D01*
X142059982Y-114599174D01*
X142043503Y-114634229D01*
X142030409Y-114669794D01*
X142020656Y-114705421D01*
X142014199Y-114740665D01*
X142010991Y-114775079D01*
X142010593Y-114791835D01*
X142012203Y-114817641D01*
X142017348Y-114841407D01*
X142026495Y-114863023D01*
X142040114Y-114882382D01*
X142058671Y-114899373D01*
X142082637Y-114913889D01*
X142101850Y-114922138D01*
X142123813Y-114929206D01*
X142148666Y-114935061D01*
X142176547Y-114939671D01*
X142207596Y-114943003D01*
X142241950Y-114945027D01*
X142279748Y-114945708D01*
X143028597Y-114945708D01*
X143028597Y-114752268D01*
X143160000Y-114752268D01*
X143151695Y-115105443D01*
X143160000Y-115458130D01*
G37*
D11*
G36*
X138192728Y-100909316D02*
G01*
X138188332Y-100909316D01*
X138190727Y-100909240D01*
X138192728Y-100909316D01*
G37*
G36*
X137270401Y-98835342D02*
G01*
X137322104Y-98838667D01*
X137372776Y-98844183D01*
X137422372Y-98851870D01*
X137470845Y-98861707D01*
X137518153Y-98873674D01*
X137564248Y-98887750D01*
X137609087Y-98903915D01*
X137652624Y-98922147D01*
X137694815Y-98942427D01*
X137735614Y-98964734D01*
X137774976Y-98989047D01*
X137812857Y-99015345D01*
X137849212Y-99043609D01*
X137883995Y-99073817D01*
X137917161Y-99105949D01*
X137948666Y-99139985D01*
X137978464Y-99175903D01*
X138006511Y-99213684D01*
X138032761Y-99253306D01*
X138057170Y-99294749D01*
X138079693Y-99337993D01*
X138100284Y-99383017D01*
X138118898Y-99429800D01*
X138135491Y-99478322D01*
X138150018Y-99528562D01*
X138162433Y-99580500D01*
X138172692Y-99634115D01*
X138180749Y-99689386D01*
X138186560Y-99746294D01*
X138190079Y-99804817D01*
X138191263Y-99864934D01*
X138191114Y-99889436D01*
X138190728Y-99909626D01*
X138190010Y-99931310D01*
X138188874Y-99954431D01*
X138187233Y-99978934D01*
X138184998Y-100004765D01*
X138182085Y-100031866D01*
X138178405Y-100060183D01*
X138175483Y-100079708D01*
X138172156Y-100099733D01*
X138168398Y-100120241D01*
X138166350Y-100130670D01*
X138196630Y-100137984D01*
X138226274Y-100145208D01*
X138255259Y-100152384D01*
X138283565Y-100159552D01*
X138311171Y-100166755D01*
X138338055Y-100174033D01*
X138364196Y-100181429D01*
X138389573Y-100188983D01*
X138414163Y-100196738D01*
X138437947Y-100204735D01*
X138460903Y-100213015D01*
X138483009Y-100221620D01*
X138504244Y-100230592D01*
X138524587Y-100239971D01*
X138544017Y-100249800D01*
X138562512Y-100260119D01*
X138580051Y-100270971D01*
X138596612Y-100282397D01*
X138612176Y-100294438D01*
X138640221Y-100320532D01*
X138664017Y-100349586D01*
X138683393Y-100381932D01*
X138698178Y-100417901D01*
X138703797Y-100437348D01*
X138708203Y-100457825D01*
X138711377Y-100479375D01*
X138713298Y-100502037D01*
X138713942Y-100525855D01*
X138712545Y-100552054D01*
X138709327Y-100577174D01*
X138704374Y-100601229D01*
X138697769Y-100624237D01*
X138689598Y-100646214D01*
X138679948Y-100667177D01*
X138668902Y-100687140D01*
X138656545Y-100706122D01*
X138642964Y-100724137D01*
X138628243Y-100741203D01*
X138612467Y-100757335D01*
X138595721Y-100772550D01*
X138578091Y-100786864D01*
X138559662Y-100800294D01*
X138540519Y-100812855D01*
X138520746Y-100824564D01*
X138500430Y-100835438D01*
X138479655Y-100845492D01*
X138458507Y-100854742D01*
X138437070Y-100863206D01*
X138415430Y-100870899D01*
X138393672Y-100877838D01*
X138371881Y-100884039D01*
X138350143Y-100889518D01*
X138328541Y-100894291D01*
X138307162Y-100898375D01*
X138286091Y-100901786D01*
X138265413Y-100904540D01*
X138245213Y-100906654D01*
X138225576Y-100908144D01*
X138190727Y-100909240D01*
X138171876Y-100908530D01*
X138150825Y-100904134D01*
X138132299Y-100892967D01*
X138122149Y-100875610D01*
X138119944Y-100859002D01*
X138123453Y-100838969D01*
X138136481Y-100821881D01*
X138154432Y-100812979D01*
X138174239Y-100808928D01*
X138176120Y-100808688D01*
X138203410Y-100799991D01*
X138225716Y-100784443D01*
X138243540Y-100763439D01*
X138257384Y-100738372D01*
X138264650Y-100720092D01*
X138270519Y-100701038D01*
X138275141Y-100681624D01*
X138278663Y-100662262D01*
X138282212Y-100634220D01*
X138284124Y-100608618D01*
X138284904Y-100586849D01*
X138285052Y-100570307D01*
X138284729Y-100545361D01*
X138283324Y-100525382D01*
X138280013Y-100504284D01*
X138273982Y-100482041D01*
X138264413Y-100458627D01*
X138250491Y-100434016D01*
X138238388Y-100416929D01*
X138223746Y-100399291D01*
X138206322Y-100381093D01*
X138185875Y-100362327D01*
X138162163Y-100342985D01*
X138134944Y-100323059D01*
X138119944Y-100312875D01*
X138101711Y-100354938D01*
X138082227Y-100395057D01*
X138061550Y-100433273D01*
X138039742Y-100469624D01*
X138016865Y-100504152D01*
X137992979Y-100536895D01*
X137968145Y-100567894D01*
X137942425Y-100597189D01*
X137915879Y-100624820D01*
X137888568Y-100650826D01*
X137860553Y-100675248D01*
X137831895Y-100698125D01*
X137802656Y-100719497D01*
X137772896Y-100739404D01*
X137742677Y-100757886D01*
X137712058Y-100774983D01*
X137681102Y-100790735D01*
X137649869Y-100805181D01*
X137618420Y-100818362D01*
X137586817Y-100830317D01*
X137555120Y-100841087D01*
X137523390Y-100850711D01*
X137491688Y-100859229D01*
X137460076Y-100866681D01*
X137428614Y-100873107D01*
X137397363Y-100878546D01*
X137366384Y-100883040D01*
X137335739Y-100886627D01*
X137305488Y-100889347D01*
X137275692Y-100891241D01*
X137246413Y-100892348D01*
X137217711Y-100892708D01*
X137162033Y-100891525D01*
X137107590Y-100887997D01*
X137054417Y-100882161D01*
X137002547Y-100874051D01*
X136952017Y-100863702D01*
X136902860Y-100851147D01*
X136855113Y-100836424D01*
X136808810Y-100819565D01*
X136763986Y-100800606D01*
X136720676Y-100779582D01*
X136678915Y-100756527D01*
X136638738Y-100731476D01*
X136600180Y-100704465D01*
X136563275Y-100675527D01*
X136528060Y-100644698D01*
X136494569Y-100612012D01*
X136462836Y-100577504D01*
X136432897Y-100541210D01*
X136404787Y-100503163D01*
X136378541Y-100463399D01*
X136354193Y-100421952D01*
X136331779Y-100378857D01*
X136311334Y-100334149D01*
X136292893Y-100287863D01*
X136276490Y-100240034D01*
X136262160Y-100190696D01*
X136249940Y-100139884D01*
X136239862Y-100087633D01*
X136231964Y-100033978D01*
X136226278Y-99978953D01*
X136222842Y-99922593D01*
X136221688Y-99864934D01*
X136221747Y-99862003D01*
X136334040Y-99862003D01*
X136334717Y-99891144D01*
X136336871Y-99921632D01*
X136340683Y-99953246D01*
X136346336Y-99985766D01*
X136354013Y-100018969D01*
X136363896Y-100052636D01*
X136376167Y-100086544D01*
X136391010Y-100120473D01*
X136408605Y-100154202D01*
X136429137Y-100187509D01*
X136440561Y-100203936D01*
X136452787Y-100220174D01*
X136465839Y-100236196D01*
X136479738Y-100251975D01*
X136494509Y-100267483D01*
X136510173Y-100282691D01*
X136526753Y-100297574D01*
X136544273Y-100312102D01*
X136562755Y-100326248D01*
X136582221Y-100339985D01*
X136602696Y-100353285D01*
X136624200Y-100366120D01*
X136657642Y-100384959D01*
X136692433Y-100401627D01*
X136728364Y-100416258D01*
X136765228Y-100428982D01*
X136783944Y-100434671D01*
X136802816Y-100439932D01*
X136821816Y-100444783D01*
X136840919Y-100449239D01*
X136860099Y-100453318D01*
X136879331Y-100457035D01*
X136898587Y-100460407D01*
X136937069Y-100466183D01*
X136975339Y-100470777D01*
X137013187Y-100474320D01*
X137050406Y-100476944D01*
X137086788Y-100478782D01*
X137122124Y-100479963D01*
X137156206Y-100480622D01*
X137188825Y-100480887D01*
X137204521Y-100480915D01*
X137210872Y-100480915D01*
X137242812Y-100480849D01*
X137280099Y-100480390D01*
X137300530Y-100479890D01*
X137322035Y-100479144D01*
X137344527Y-100478102D01*
X137367920Y-100476717D01*
X137392126Y-100474937D01*
X137417057Y-100472715D01*
X137442626Y-100470002D01*
X137468746Y-100466747D01*
X137495331Y-100462901D01*
X137522291Y-100458416D01*
X137549541Y-100453243D01*
X137576992Y-100447331D01*
X137604558Y-100440633D01*
X137632151Y-100433098D01*
X137659684Y-100424677D01*
X137687069Y-100415322D01*
X137714220Y-100404983D01*
X137741049Y-100393611D01*
X137767468Y-100381156D01*
X137793391Y-100367571D01*
X137818730Y-100352804D01*
X137843398Y-100336808D01*
X137867307Y-100319532D01*
X137890371Y-100300929D01*
X137912501Y-100280947D01*
X137933611Y-100259540D01*
X137953614Y-100236656D01*
X137972421Y-100212247D01*
X137953432Y-100200232D01*
X137933484Y-100187220D01*
X137912880Y-100173144D01*
X137891920Y-100157934D01*
X137870906Y-100141522D01*
X137850138Y-100123839D01*
X137829919Y-100104817D01*
X137810549Y-100084386D01*
X137792330Y-100062479D01*
X137775562Y-100039026D01*
X137760548Y-100013958D01*
X137747588Y-99987208D01*
X137736983Y-99958706D01*
X137729036Y-99928384D01*
X137724046Y-99896172D01*
X137722464Y-99864934D01*
X137823433Y-99864934D01*
X137824393Y-99887320D01*
X137827664Y-99910331D01*
X137833829Y-99933687D01*
X137843474Y-99957112D01*
X137857182Y-99980327D01*
X137875539Y-100003056D01*
X137890647Y-100017801D01*
X137908255Y-100032123D01*
X137928534Y-100045941D01*
X137951658Y-100059172D01*
X137977800Y-100071734D01*
X138007134Y-100083545D01*
X138039832Y-100094522D01*
X138048051Y-100074521D01*
X138055407Y-100053884D01*
X138061911Y-100032722D01*
X138067576Y-100011146D01*
X138072412Y-99989267D01*
X138076434Y-99967197D01*
X138079652Y-99945047D01*
X138082078Y-99922926D01*
X138083726Y-99900948D01*
X138084606Y-99879223D01*
X138084773Y-99864934D01*
X138083755Y-99837624D01*
X138080844Y-99813283D01*
X138076253Y-99791747D01*
X138070194Y-99772847D01*
X138058823Y-99749076D01*
X138045351Y-99730301D01*
X138030498Y-99715958D01*
X138009788Y-99702756D01*
X137989608Y-99695100D01*
X137967726Y-99691296D01*
X137960697Y-99691033D01*
X137938687Y-99693126D01*
X137918100Y-99699170D01*
X137899099Y-99708816D01*
X137881846Y-99721713D01*
X137866502Y-99737512D01*
X137853230Y-99755861D01*
X137842191Y-99776412D01*
X137833546Y-99798813D01*
X137827458Y-99822715D01*
X137824089Y-99847767D01*
X137823433Y-99864934D01*
X137722464Y-99864934D01*
X137722316Y-99862003D01*
X137723421Y-99835447D01*
X137726689Y-99809380D01*
X137732050Y-99783972D01*
X137739436Y-99759391D01*
X137748777Y-99735805D01*
X137760003Y-99713385D01*
X137773045Y-99692299D01*
X137787834Y-99672715D01*
X137804301Y-99654803D01*
X137822375Y-99638731D01*
X137841987Y-99624668D01*
X137863069Y-99612784D01*
X137885550Y-99603246D01*
X137909361Y-99596225D01*
X137934434Y-99591888D01*
X137960697Y-99590405D01*
X137982297Y-99591424D01*
X138001851Y-99593721D01*
X138021848Y-99598213D01*
X138023224Y-99598709D01*
X138006292Y-99567398D01*
X137987975Y-99537996D01*
X137968359Y-99510443D01*
X137947525Y-99484679D01*
X137925559Y-99460645D01*
X137902544Y-99438279D01*
X137878565Y-99417523D01*
X137853704Y-99398316D01*
X137828046Y-99380598D01*
X137801674Y-99364308D01*
X137774674Y-99349388D01*
X137747128Y-99335777D01*
X137719120Y-99323415D01*
X137690735Y-99312242D01*
X137662056Y-99302198D01*
X137633168Y-99293223D01*
X137604153Y-99285256D01*
X137575096Y-99278239D01*
X137546081Y-99272111D01*
X137517192Y-99266811D01*
X137488513Y-99262280D01*
X137460127Y-99258458D01*
X137432119Y-99255285D01*
X137404572Y-99252701D01*
X137377570Y-99250646D01*
X137351197Y-99249059D01*
X137325538Y-99247881D01*
X137300675Y-99247052D01*
X137276693Y-99246512D01*
X137253676Y-99246200D01*
X137231708Y-99246057D01*
X137210872Y-99246023D01*
X137188354Y-99246048D01*
X137162595Y-99246225D01*
X137133915Y-99246705D01*
X137102634Y-99247641D01*
X137069072Y-99249183D01*
X137033549Y-99251484D01*
X136996384Y-99254695D01*
X136957897Y-99258968D01*
X136938258Y-99261550D01*
X136918409Y-99264454D01*
X136898389Y-99267700D01*
X136878239Y-99271306D01*
X136857998Y-99275291D01*
X136837707Y-99279674D01*
X136817405Y-99284475D01*
X136797132Y-99289712D01*
X136776929Y-99295403D01*
X136756835Y-99301569D01*
X136736891Y-99308228D01*
X136717136Y-99315399D01*
X136697610Y-99323101D01*
X136678354Y-99331353D01*
X136659407Y-99340173D01*
X136640809Y-99349582D01*
X136616592Y-99363501D01*
X136593652Y-99377941D01*
X136571957Y-99392861D01*
X136551472Y-99408225D01*
X136532165Y-99423992D01*
X136514002Y-99440126D01*
X136496950Y-99456587D01*
X136480975Y-99473336D01*
X136466044Y-99490337D01*
X136452124Y-99507549D01*
X136439181Y-99524935D01*
X136427181Y-99542455D01*
X136416093Y-99560073D01*
X136405881Y-99577748D01*
X136396514Y-99595443D01*
X136387957Y-99613120D01*
X136373140Y-99648262D01*
X136361165Y-99682868D01*
X136351765Y-99716630D01*
X136344672Y-99749239D01*
X136339620Y-99780389D01*
X136336342Y-99809771D01*
X136334571Y-99837079D01*
X136334040Y-99862003D01*
X136221747Y-99862003D01*
X136222889Y-99805547D01*
X136226461Y-99747662D01*
X136232361Y-99691305D01*
X136240544Y-99636499D01*
X136250966Y-99583271D01*
X136263584Y-99531646D01*
X136278352Y-99481648D01*
X136295228Y-99433304D01*
X136314167Y-99386637D01*
X136335125Y-99341673D01*
X136358057Y-99298438D01*
X136382920Y-99256955D01*
X136409670Y-99217252D01*
X136438262Y-99179352D01*
X136468652Y-99143281D01*
X136500797Y-99109064D01*
X136534652Y-99076725D01*
X136570173Y-99046291D01*
X136607316Y-99017787D01*
X136646036Y-98991236D01*
X136686291Y-98966666D01*
X136728035Y-98944100D01*
X136771225Y-98923564D01*
X136815817Y-98905083D01*
X136861765Y-98888682D01*
X136909028Y-98874386D01*
X136957559Y-98862221D01*
X137007315Y-98852211D01*
X137058253Y-98844382D01*
X137110327Y-98838758D01*
X137163495Y-98835366D01*
X137217711Y-98834229D01*
X137270401Y-98835342D01*
G37*
G36*
X138174654Y-102796337D02*
G01*
X138043251Y-102796337D01*
X138043225Y-102765587D01*
X138043037Y-102738237D01*
X138042527Y-102714090D01*
X138041534Y-102692953D01*
X138038787Y-102666462D01*
X138034048Y-102645642D01*
X138023690Y-102625564D01*
X138007536Y-102612834D01*
X137984299Y-102605888D01*
X137961447Y-102603534D01*
X137933342Y-102602896D01*
X136909476Y-102602896D01*
X136931946Y-102090475D01*
X137063838Y-102090475D01*
X137063864Y-102121305D01*
X137064052Y-102148715D01*
X137064562Y-102172903D01*
X137065555Y-102194064D01*
X137068302Y-102220567D01*
X137073041Y-102241373D01*
X137083399Y-102261405D01*
X137099553Y-102274076D01*
X137122790Y-102280966D01*
X137145642Y-102283289D01*
X137173747Y-102283915D01*
X137711081Y-102283915D01*
X137732456Y-102283500D01*
X137753340Y-102282263D01*
X137773721Y-102280221D01*
X137793588Y-102277387D01*
X137812927Y-102273776D01*
X137849973Y-102264283D01*
X137884762Y-102251860D01*
X137917195Y-102236625D01*
X137947173Y-102218697D01*
X137974596Y-102198193D01*
X137999368Y-102175231D01*
X138021388Y-102149930D01*
X138040558Y-102122408D01*
X138056779Y-102092782D01*
X138069952Y-102061171D01*
X138079979Y-102027692D01*
X138086762Y-101992465D01*
X138090200Y-101955606D01*
X138090635Y-101936602D01*
X138090430Y-101917005D01*
X138088783Y-101881300D01*
X138085472Y-101850002D01*
X138080479Y-101822823D01*
X138073786Y-101799472D01*
X138065376Y-101779660D01*
X138049501Y-101755944D01*
X138029660Y-101738560D01*
X138005794Y-101726529D01*
X137977841Y-101718875D01*
X137956906Y-101715720D01*
X137934110Y-101713786D01*
X137909435Y-101712782D01*
X137882864Y-101712419D01*
X137868862Y-101712387D01*
X136909476Y-101712387D01*
X136931946Y-101199965D01*
X137063838Y-101199965D01*
X137063864Y-101230796D01*
X137064052Y-101258206D01*
X137064562Y-101282393D01*
X137065555Y-101303555D01*
X137068302Y-101330057D01*
X137073041Y-101350863D01*
X137083399Y-101370896D01*
X137099553Y-101383567D01*
X137122790Y-101390456D01*
X137145642Y-101392780D01*
X137173747Y-101393406D01*
X137829295Y-101393406D01*
X137856765Y-101394064D01*
X137882867Y-101396019D01*
X137907635Y-101399237D01*
X137931101Y-101403687D01*
X137953297Y-101409336D01*
X137974256Y-101416152D01*
X137994010Y-101424103D01*
X138012591Y-101433156D01*
X138030033Y-101443280D01*
X138046367Y-101454443D01*
X138075844Y-101479753D01*
X138101280Y-101508831D01*
X138122936Y-101541417D01*
X138132427Y-101558946D01*
X138141071Y-101577255D01*
X138148900Y-101596313D01*
X138155946Y-101616087D01*
X138162241Y-101636545D01*
X138167819Y-101657655D01*
X138172712Y-101679384D01*
X138176951Y-101701701D01*
X138180571Y-101724574D01*
X138183602Y-101747969D01*
X138186078Y-101771855D01*
X138188031Y-101796200D01*
X138189494Y-101820972D01*
X138190498Y-101846138D01*
X138191077Y-101871665D01*
X138191263Y-101897523D01*
X138191083Y-101921227D01*
X138189823Y-101950732D01*
X138187851Y-101973131D01*
X138184599Y-101997368D01*
X138179748Y-102023146D01*
X138172978Y-102050169D01*
X138163968Y-102078141D01*
X138152400Y-102106765D01*
X138137954Y-102135746D01*
X138120308Y-102164787D01*
X138099145Y-102193591D01*
X138074143Y-102221863D01*
X138060103Y-102235707D01*
X138044983Y-102249307D01*
X138028744Y-102262626D01*
X138011345Y-102275626D01*
X137992747Y-102288271D01*
X137972909Y-102300524D01*
X138191263Y-102300524D01*
X138174654Y-102796337D01*
G37*
G36*
X138160000Y-105480077D02*
G01*
X138028597Y-105480077D01*
X138028597Y-105287125D01*
X137310523Y-105287125D01*
X137284230Y-105286706D01*
X137258926Y-105285448D01*
X137234601Y-105283350D01*
X137211245Y-105280412D01*
X137188847Y-105276635D01*
X137167397Y-105272017D01*
X137146886Y-105266558D01*
X137127303Y-105260259D01*
X137108637Y-105253117D01*
X137074021Y-105236309D01*
X137042955Y-105216130D01*
X137015360Y-105192578D01*
X136991153Y-105165650D01*
X136970255Y-105135343D01*
X136952585Y-105101655D01*
X136944935Y-105083542D01*
X136938061Y-105064582D01*
X136931954Y-105044775D01*
X136926603Y-105024121D01*
X136921999Y-105002620D01*
X136918130Y-104980271D01*
X136914988Y-104957073D01*
X136912561Y-104933027D01*
X136910841Y-104908131D01*
X136909816Y-104882387D01*
X136909476Y-104855792D01*
X136909882Y-104832207D01*
X136911082Y-104809255D01*
X136913047Y-104786932D01*
X136915750Y-104765229D01*
X136919163Y-104744141D01*
X136923258Y-104723660D01*
X136928006Y-104703780D01*
X136933381Y-104684494D01*
X136939354Y-104665796D01*
X136952984Y-104630135D01*
X136968671Y-104596744D01*
X136986193Y-104565568D01*
X137005326Y-104536554D01*
X137025847Y-104509649D01*
X137047534Y-104484798D01*
X137070162Y-104461949D01*
X137093508Y-104441047D01*
X137117350Y-104422038D01*
X137141463Y-104404870D01*
X137165625Y-104389488D01*
X137177655Y-104382450D01*
X137154064Y-104376647D01*
X137131898Y-104369725D01*
X137111111Y-104361747D01*
X137091659Y-104352778D01*
X137073499Y-104342883D01*
X137056586Y-104332128D01*
X137026323Y-104308292D01*
X137000517Y-104281788D01*
X136978813Y-104253135D01*
X136960858Y-104222850D01*
X136946296Y-104191452D01*
X136934774Y-104159458D01*
X136925937Y-104127388D01*
X136919431Y-104095758D01*
X136914903Y-104065087D01*
X136911997Y-104035893D01*
X136910361Y-104008693D01*
X136909638Y-103984007D01*
X136909476Y-103962352D01*
X136909843Y-103939790D01*
X136910934Y-103917715D01*
X136912736Y-103896125D01*
X136915234Y-103875016D01*
X136918414Y-103854387D01*
X136922263Y-103834235D01*
X136926765Y-103814557D01*
X136931908Y-103795351D01*
X136937677Y-103776615D01*
X136951037Y-103740540D01*
X136966733Y-103706312D01*
X136984653Y-103673913D01*
X137004684Y-103643320D01*
X137026714Y-103614516D01*
X137050630Y-103587478D01*
X137076321Y-103562188D01*
X137103673Y-103538626D01*
X137132575Y-103516770D01*
X137162914Y-103496602D01*
X137194578Y-103478101D01*
X137210872Y-103469470D01*
X136909476Y-103469470D01*
X136934389Y-102987823D01*
X137065792Y-102987823D01*
X137065818Y-103018654D01*
X137066002Y-103046064D01*
X137066503Y-103070251D01*
X137067478Y-103091413D01*
X137070177Y-103117915D01*
X137074832Y-103138721D01*
X137085005Y-103158754D01*
X137100872Y-103171425D01*
X137123696Y-103178314D01*
X137146142Y-103180637D01*
X137173747Y-103181263D01*
X138028597Y-103181263D01*
X138028597Y-102987823D01*
X138160000Y-102987823D01*
X138151695Y-103340998D01*
X138160000Y-103693685D01*
X138028597Y-103693685D01*
X138028597Y-103500245D01*
X137450718Y-103500245D01*
X137422945Y-103500949D01*
X137396134Y-103503025D01*
X137370280Y-103506413D01*
X137345378Y-103511058D01*
X137321422Y-103516901D01*
X137298407Y-103523886D01*
X137276328Y-103531954D01*
X137255179Y-103541048D01*
X137234955Y-103551112D01*
X137215652Y-103562086D01*
X137197263Y-103573915D01*
X137179783Y-103586541D01*
X137163208Y-103599905D01*
X137147531Y-103613951D01*
X137132748Y-103628622D01*
X137118853Y-103643859D01*
X137105841Y-103659606D01*
X137093707Y-103675805D01*
X137082446Y-103692399D01*
X137072051Y-103709330D01*
X137062519Y-103726540D01*
X137046018Y-103761571D01*
X137032901Y-103797032D01*
X137023127Y-103832464D01*
X137016652Y-103867407D01*
X137013435Y-103901402D01*
X137013035Y-103917900D01*
X137014587Y-103943779D01*
X137019578Y-103967742D01*
X137028510Y-103989653D01*
X137041886Y-104009374D01*
X137060208Y-104026766D01*
X137083978Y-104041693D01*
X137103100Y-104050206D01*
X137125015Y-104057522D01*
X137149872Y-104063598D01*
X137177821Y-104068396D01*
X137209009Y-104071873D01*
X137243587Y-104073989D01*
X137281702Y-104074704D01*
X138028597Y-104074704D01*
X138028597Y-103881263D01*
X138160000Y-103881263D01*
X138151695Y-104233950D01*
X138160000Y-104587125D01*
X138028597Y-104587125D01*
X138028597Y-104393685D01*
X137450718Y-104393685D01*
X137422945Y-104394389D01*
X137396134Y-104396465D01*
X137370280Y-104399853D01*
X137345378Y-104404497D01*
X137321422Y-104410340D01*
X137298407Y-104417323D01*
X137276328Y-104425389D01*
X137255179Y-104434481D01*
X137234955Y-104444541D01*
X137215652Y-104455512D01*
X137197263Y-104467336D01*
X137179783Y-104479955D01*
X137163208Y-104493313D01*
X137147531Y-104507351D01*
X137132748Y-104522012D01*
X137118853Y-104537239D01*
X137105841Y-104552973D01*
X137093707Y-104569159D01*
X137082446Y-104585737D01*
X137072051Y-104602651D01*
X137062519Y-104619843D01*
X137046018Y-104654830D01*
X137032901Y-104690240D01*
X137023127Y-104725611D01*
X137016652Y-104760484D01*
X137013435Y-104794398D01*
X137013035Y-104810852D01*
X137014587Y-104836730D01*
X137019578Y-104860694D01*
X137028510Y-104882605D01*
X137041886Y-104902325D01*
X137060208Y-104919718D01*
X137083978Y-104934645D01*
X137103100Y-104943158D01*
X137125015Y-104950473D01*
X137149872Y-104956550D01*
X137177821Y-104961348D01*
X137209009Y-104964825D01*
X137243587Y-104966941D01*
X137281702Y-104967656D01*
X138028597Y-104967656D01*
X138028597Y-104774704D01*
X138160000Y-104774704D01*
X138151695Y-105127390D01*
X138160000Y-105480077D01*
G37*
G36*
X138160000Y-107186358D02*
G01*
X138028597Y-107186358D01*
X138028597Y-107138975D01*
X138028460Y-107117634D01*
X138027688Y-107090111D01*
X138026139Y-107067358D01*
X138022672Y-107043242D01*
X138015715Y-107020785D01*
X138005364Y-107003876D01*
X137991104Y-106989306D01*
X137972421Y-106973866D01*
X137376957Y-106500524D01*
X137092170Y-106864446D01*
X137078404Y-106882433D01*
X137066534Y-106902442D01*
X137058523Y-106922609D01*
X137053442Y-106941513D01*
X137049198Y-106964623D01*
X137045830Y-106992808D01*
X137044090Y-107014846D01*
X137042769Y-107039784D01*
X137041876Y-107067879D01*
X137041424Y-107099388D01*
X137041367Y-107116504D01*
X136909476Y-107116504D01*
X136910101Y-107095357D01*
X136910608Y-107074475D01*
X136911012Y-107053815D01*
X136911322Y-107033334D01*
X136911552Y-107012988D01*
X136911714Y-106992734D01*
X136911819Y-106972528D01*
X136911880Y-106952327D01*
X136911909Y-106932088D01*
X136911918Y-106911766D01*
X136911919Y-106898151D01*
X136909476Y-106576239D01*
X137041367Y-106576239D01*
X137039692Y-106597923D01*
X137039559Y-106618878D01*
X137042955Y-106639620D01*
X137053280Y-106658045D01*
X137065792Y-106671494D01*
X137483447Y-106141975D01*
X136221688Y-106141975D01*
X136252951Y-105646651D01*
X136384842Y-105646651D01*
X136384869Y-105677395D01*
X136385054Y-105704730D01*
X136385557Y-105728852D01*
X136386537Y-105749958D01*
X136389247Y-105776392D01*
X136393924Y-105797147D01*
X136404143Y-105817134D01*
X136420081Y-105829779D01*
X136443009Y-105836656D01*
X136465556Y-105838977D01*
X136493286Y-105839603D01*
X138028597Y-105839603D01*
X138028597Y-105646651D01*
X138160000Y-105646651D01*
X138151695Y-105982240D01*
X138160000Y-106321250D01*
X138028597Y-106321250D01*
X138028597Y-106128298D01*
X137675910Y-106128298D01*
X137659105Y-106149634D01*
X137644455Y-106168333D01*
X137631618Y-106184849D01*
X137616730Y-106204259D01*
X137603642Y-106221671D01*
X137591541Y-106238161D01*
X137579615Y-106254806D01*
X137567051Y-106272682D01*
X137556720Y-106287544D01*
X137906475Y-106570377D01*
X137923425Y-106583469D01*
X137942068Y-106597948D01*
X137960804Y-106612336D01*
X137978036Y-106625160D01*
X137994476Y-106636404D01*
X138003684Y-106640719D01*
X138020501Y-106627833D01*
X138026031Y-106607520D01*
X138028043Y-106586290D01*
X138028576Y-106564268D01*
X138028597Y-106553769D01*
X138160000Y-106553769D01*
X138158553Y-106581290D01*
X138157661Y-106603365D01*
X138156829Y-106627757D01*
X138156056Y-106653894D01*
X138155344Y-106681205D01*
X138154693Y-106709119D01*
X138154104Y-106737066D01*
X138153577Y-106764473D01*
X138153114Y-106790771D01*
X138152714Y-106815388D01*
X138152380Y-106837754D01*
X138152111Y-106857296D01*
X138151832Y-106880068D01*
X138151695Y-106895220D01*
X138151772Y-106923509D01*
X138152001Y-106951515D01*
X138152380Y-106979266D01*
X138152906Y-107006787D01*
X138153577Y-107034105D01*
X138154390Y-107061247D01*
X138155344Y-107088239D01*
X138156435Y-107115107D01*
X138157661Y-107141880D01*
X138159021Y-107168582D01*
X138160000Y-107186358D01*
G37*
G36*
X138174654Y-108962980D02*
G01*
X138043251Y-108962980D01*
X138043225Y-108932230D01*
X138043037Y-108904880D01*
X138042527Y-108880734D01*
X138041534Y-108859597D01*
X138038787Y-108833105D01*
X138034048Y-108812285D01*
X138023690Y-108792208D01*
X138007536Y-108779477D01*
X137984299Y-108772531D01*
X137961447Y-108770178D01*
X137933342Y-108769540D01*
X136909476Y-108769540D01*
X136931946Y-108257118D01*
X137063838Y-108257118D01*
X137063864Y-108287949D01*
X137064052Y-108315359D01*
X137064562Y-108339546D01*
X137065555Y-108360708D01*
X137068302Y-108387210D01*
X137073041Y-108408016D01*
X137083399Y-108428049D01*
X137099553Y-108440720D01*
X137122790Y-108447609D01*
X137145642Y-108449932D01*
X137173747Y-108450559D01*
X137711081Y-108450559D01*
X137732456Y-108450143D01*
X137753340Y-108448907D01*
X137773721Y-108446864D01*
X137793588Y-108444030D01*
X137812927Y-108440419D01*
X137849973Y-108430926D01*
X137884762Y-108418503D01*
X137917195Y-108403269D01*
X137947173Y-108385340D01*
X137974596Y-108364836D01*
X137999368Y-108341875D01*
X138021388Y-108316574D01*
X138040558Y-108289051D01*
X138056779Y-108259425D01*
X138069952Y-108227814D01*
X138079979Y-108194336D01*
X138086762Y-108159108D01*
X138090200Y-108122249D01*
X138090635Y-108103245D01*
X138090430Y-108083649D01*
X138088783Y-108047943D01*
X138085472Y-108016645D01*
X138080479Y-107989466D01*
X138073786Y-107966116D01*
X138065376Y-107946304D01*
X138049501Y-107922587D01*
X138029660Y-107905203D01*
X138005794Y-107893173D01*
X137977841Y-107885518D01*
X137956906Y-107882363D01*
X137934110Y-107880429D01*
X137909435Y-107879425D01*
X137882864Y-107879062D01*
X137868862Y-107879030D01*
X136909476Y-107879030D01*
X136931946Y-107366609D01*
X137063838Y-107366609D01*
X137063864Y-107397439D01*
X137064052Y-107424849D01*
X137064562Y-107449037D01*
X137065555Y-107470198D01*
X137068302Y-107496701D01*
X137073041Y-107517507D01*
X137083399Y-107537539D01*
X137099553Y-107550210D01*
X137122790Y-107557100D01*
X137145642Y-107559423D01*
X137173747Y-107560049D01*
X137829295Y-107560049D01*
X137856765Y-107560708D01*
X137882867Y-107562662D01*
X137907635Y-107565881D01*
X137931101Y-107570330D01*
X137953297Y-107575979D01*
X137974256Y-107582795D01*
X137994010Y-107590746D01*
X138012591Y-107599800D01*
X138030033Y-107609924D01*
X138046367Y-107621086D01*
X138075844Y-107646397D01*
X138101280Y-107675474D01*
X138122936Y-107708060D01*
X138132427Y-107725589D01*
X138141071Y-107743898D01*
X138148900Y-107762956D01*
X138155946Y-107782730D01*
X138162241Y-107803188D01*
X138167819Y-107824298D01*
X138172712Y-107846028D01*
X138176951Y-107868345D01*
X138180571Y-107891217D01*
X138183602Y-107914613D01*
X138186078Y-107938499D01*
X138188031Y-107962844D01*
X138189494Y-107987615D01*
X138190498Y-108012781D01*
X138191077Y-108038309D01*
X138191263Y-108064166D01*
X138191083Y-108087871D01*
X138189823Y-108117376D01*
X138187851Y-108139775D01*
X138184599Y-108164011D01*
X138179748Y-108189789D01*
X138172978Y-108216812D01*
X138163968Y-108244784D01*
X138152400Y-108273408D01*
X138137954Y-108302389D01*
X138120308Y-108331430D01*
X138099145Y-108360235D01*
X138074143Y-108388507D01*
X138060103Y-108402351D01*
X138044983Y-108415951D01*
X138028744Y-108429269D01*
X138011345Y-108442269D01*
X137992747Y-108454914D01*
X137972909Y-108467167D01*
X138191263Y-108467167D01*
X138174654Y-108962980D01*
G37*
G36*
X137896834Y-109119321D02*
G01*
X137920139Y-109122266D01*
X137942225Y-109127063D01*
X137963125Y-109133619D01*
X137982868Y-109141843D01*
X138001485Y-109151642D01*
X138019008Y-109162926D01*
X138035466Y-109175601D01*
X138050892Y-109189577D01*
X138065314Y-109204761D01*
X138078765Y-109221061D01*
X138091276Y-109238386D01*
X138102876Y-109256644D01*
X138113596Y-109275742D01*
X138123468Y-109295590D01*
X138132522Y-109316094D01*
X138140789Y-109337164D01*
X138148300Y-109358708D01*
X138155085Y-109380633D01*
X138161175Y-109402847D01*
X138166601Y-109425260D01*
X138171394Y-109447778D01*
X138175584Y-109470311D01*
X138179203Y-109492766D01*
X138182281Y-109515051D01*
X138184848Y-109537075D01*
X138186936Y-109558746D01*
X138188576Y-109579971D01*
X138189797Y-109600659D01*
X138190632Y-109620719D01*
X138191263Y-109658584D01*
X138191595Y-109679333D01*
X138191234Y-109699542D01*
X138190202Y-109719216D01*
X138186207Y-109756974D01*
X138179788Y-109792641D01*
X138171117Y-109826251D01*
X138160369Y-109857837D01*
X138147720Y-109887432D01*
X138133343Y-109915071D01*
X138117413Y-109940786D01*
X138100106Y-109964612D01*
X138081594Y-109986583D01*
X138062054Y-110006731D01*
X138041659Y-110025091D01*
X138020585Y-110041696D01*
X137999005Y-110056579D01*
X137977095Y-110069775D01*
X137966071Y-110075751D01*
X137985984Y-110075991D01*
X138008274Y-110077673D01*
X138031994Y-110082238D01*
X138056196Y-110091129D01*
X138079935Y-110105787D01*
X138095036Y-110119475D01*
X138109230Y-110136794D01*
X138122235Y-110158171D01*
X138133773Y-110184033D01*
X138143561Y-110214809D01*
X138151320Y-110250924D01*
X138154351Y-110271117D01*
X138156770Y-110292806D01*
X138158541Y-110316043D01*
X138159629Y-110340882D01*
X138160000Y-110367377D01*
X138160000Y-110501710D01*
X138159869Y-110521540D01*
X138158511Y-110543219D01*
X138153107Y-110564323D01*
X138138253Y-110581586D01*
X138119801Y-110588679D01*
X138099157Y-110591005D01*
X138093077Y-110591103D01*
X138071793Y-110589478D01*
X138052539Y-110583318D01*
X138036657Y-110568449D01*
X138030031Y-110548321D01*
X138028650Y-110528580D01*
X138028597Y-110518319D01*
X138027654Y-110488224D01*
X138025927Y-110461885D01*
X138023426Y-110439053D01*
X138020155Y-110419477D01*
X138013824Y-110395669D01*
X138005805Y-110377778D01*
X137992526Y-110361666D01*
X137971854Y-110351152D01*
X137952126Y-110348001D01*
X137929624Y-110347354D01*
X137923572Y-110347349D01*
X137313942Y-110347349D01*
X137290473Y-110346766D01*
X137267430Y-110345014D01*
X137244836Y-110342090D01*
X137222711Y-110337991D01*
X137201075Y-110332713D01*
X137179951Y-110326251D01*
X137159357Y-110318603D01*
X137139316Y-110309766D01*
X137119848Y-110299734D01*
X137100975Y-110288506D01*
X137082716Y-110276077D01*
X137065092Y-110262444D01*
X137048125Y-110247602D01*
X137031836Y-110231550D01*
X137016245Y-110214282D01*
X137001372Y-110195796D01*
X136987240Y-110176087D01*
X136973869Y-110155153D01*
X136961279Y-110132990D01*
X136949491Y-110109593D01*
X136938527Y-110084961D01*
X136928406Y-110059088D01*
X136919151Y-110031971D01*
X136910781Y-110003607D01*
X136903318Y-109973993D01*
X136896783Y-109943124D01*
X136891196Y-109910997D01*
X136886577Y-109877609D01*
X136882949Y-109842955D01*
X136880332Y-109807033D01*
X136878746Y-109769838D01*
X136878213Y-109731368D01*
X136878400Y-109699497D01*
X136879181Y-109664112D01*
X136880889Y-109625982D01*
X136882193Y-109606128D01*
X136883854Y-109585876D01*
X136885911Y-109565322D01*
X136888407Y-109544562D01*
X136891383Y-109523692D01*
X136894880Y-109502808D01*
X136898940Y-109482007D01*
X136903604Y-109461384D01*
X136908914Y-109441036D01*
X136914911Y-109421058D01*
X136921636Y-109401546D01*
X136929131Y-109382597D01*
X136937437Y-109364307D01*
X136946596Y-109346772D01*
X136967638Y-109314349D01*
X136992587Y-109286098D01*
X137021776Y-109262788D01*
X137055534Y-109245186D01*
X137074231Y-109238766D01*
X137094194Y-109234061D01*
X137115466Y-109231168D01*
X137138087Y-109230182D01*
X137160703Y-109231303D01*
X137181673Y-109234549D01*
X137201023Y-109239742D01*
X137227067Y-109250797D01*
X137249611Y-109265241D01*
X137268742Y-109282477D01*
X137284546Y-109301907D01*
X137297111Y-109322937D01*
X137306523Y-109344968D01*
X137312871Y-109367406D01*
X137316239Y-109389652D01*
X137316873Y-109404083D01*
X137315302Y-109428413D01*
X137310588Y-109452463D01*
X137302731Y-109475771D01*
X137291731Y-109497875D01*
X137277589Y-109518314D01*
X137260304Y-109536628D01*
X137239877Y-109552354D01*
X137216306Y-109565031D01*
X137189593Y-109574199D01*
X137170038Y-109578133D01*
X137149087Y-109580166D01*
X137138087Y-109580426D01*
X137115153Y-109579103D01*
X137094183Y-109575458D01*
X137075207Y-109569975D01*
X137053063Y-109560647D01*
X137034596Y-109550066D01*
X137016795Y-109536832D01*
X137001997Y-109522316D01*
X136999357Y-109518877D01*
X136994913Y-109541111D01*
X136991160Y-109563626D01*
X136988044Y-109586083D01*
X136985507Y-109608144D01*
X136983496Y-109629470D01*
X136981953Y-109649725D01*
X136980531Y-109674478D01*
X136979713Y-109695923D01*
X136979339Y-109716855D01*
X136979330Y-109720133D01*
X136980721Y-109758210D01*
X136984872Y-109793684D01*
X136991749Y-109826578D01*
X137001319Y-109856909D01*
X137013548Y-109884699D01*
X137028402Y-109909967D01*
X137045848Y-109932733D01*
X137065853Y-109953019D01*
X137088381Y-109970842D01*
X137113401Y-109986224D01*
X137140877Y-109999185D01*
X137170778Y-110009744D01*
X137203068Y-110017922D01*
X137237715Y-110023738D01*
X137274684Y-110027213D01*
X137313942Y-110028367D01*
X137410174Y-110028367D01*
X137503475Y-110028367D01*
X137771165Y-110028367D01*
X137796923Y-110027627D01*
X137821282Y-110025459D01*
X137844280Y-110021946D01*
X137865956Y-110017169D01*
X137886347Y-110011208D01*
X137905492Y-110004147D01*
X137923429Y-109996065D01*
X137955831Y-109977167D01*
X137983857Y-109955166D01*
X138007812Y-109930712D01*
X138028001Y-109904458D01*
X138044729Y-109877053D01*
X138058301Y-109849150D01*
X138069021Y-109821400D01*
X138077195Y-109794452D01*
X138083127Y-109768960D01*
X138087122Y-109745573D01*
X138089484Y-109724944D01*
X138090635Y-109700594D01*
X138089474Y-109674229D01*
X138086064Y-109648705D01*
X138080514Y-109624140D01*
X138072935Y-109600652D01*
X138063434Y-109578361D01*
X138052123Y-109557385D01*
X138039111Y-109537843D01*
X138024506Y-109519854D01*
X138008418Y-109503536D01*
X137990958Y-109489009D01*
X137972233Y-109476390D01*
X137952355Y-109465800D01*
X137931432Y-109457356D01*
X137909573Y-109451178D01*
X137886889Y-109447384D01*
X137863489Y-109446092D01*
X137835147Y-109447365D01*
X137808344Y-109451091D01*
X137783037Y-109457136D01*
X137759182Y-109465362D01*
X137736735Y-109475633D01*
X137715652Y-109487814D01*
X137695891Y-109501768D01*
X137677406Y-109517358D01*
X137660155Y-109534449D01*
X137644095Y-109552904D01*
X137629180Y-109572587D01*
X137615368Y-109593362D01*
X137602616Y-109615093D01*
X137590878Y-109637643D01*
X137580113Y-109660876D01*
X137570275Y-109684657D01*
X137561322Y-109708848D01*
X137553210Y-109733313D01*
X137545894Y-109757917D01*
X137539333Y-109782523D01*
X137533481Y-109806994D01*
X137528295Y-109831196D01*
X137523732Y-109854990D01*
X137519747Y-109878242D01*
X137516298Y-109900815D01*
X137513341Y-109922572D01*
X137510831Y-109943378D01*
X137508726Y-109963096D01*
X137505554Y-109998725D01*
X137503475Y-110028367D01*
X137410174Y-110028367D01*
X137413055Y-110008265D01*
X137415975Y-109985384D01*
X137419006Y-109959948D01*
X137422216Y-109932183D01*
X137425678Y-109902311D01*
X137429462Y-109870556D01*
X137433638Y-109837144D01*
X137438277Y-109802298D01*
X137443450Y-109766241D01*
X137449228Y-109729199D01*
X137455680Y-109691395D01*
X137462879Y-109653053D01*
X137470894Y-109614397D01*
X137479796Y-109575652D01*
X137489656Y-109537041D01*
X137500544Y-109498788D01*
X137512531Y-109461118D01*
X137525688Y-109424254D01*
X137540086Y-109388421D01*
X137555794Y-109353842D01*
X137572885Y-109320742D01*
X137591427Y-109289345D01*
X137611493Y-109259875D01*
X137633152Y-109232556D01*
X137656476Y-109207611D01*
X137681535Y-109185266D01*
X137708400Y-109165743D01*
X137737141Y-109149268D01*
X137767829Y-109136064D01*
X137800534Y-109126355D01*
X137835328Y-109120365D01*
X137872281Y-109118319D01*
X137896834Y-109119321D01*
G37*
G36*
X137821967Y-111663329D02*
G01*
X137670537Y-111663329D01*
X137670537Y-111531926D01*
X137816594Y-111531926D01*
X137851584Y-111530898D01*
X137883706Y-111527912D01*
X137913042Y-111523116D01*
X137939677Y-111516661D01*
X137963697Y-111508695D01*
X137985185Y-111499366D01*
X138004225Y-111488823D01*
X138020903Y-111477216D01*
X138041675Y-111458134D01*
X138057605Y-111437494D01*
X138068979Y-111415798D01*
X138076081Y-111393548D01*
X138079197Y-111371246D01*
X138079399Y-111363887D01*
X138077332Y-111335254D01*
X138071420Y-111310195D01*
X138062105Y-111288472D01*
X138049823Y-111269846D01*
X138035014Y-111254080D01*
X138018116Y-111240935D01*
X137999569Y-111230173D01*
X137979809Y-111221555D01*
X137959277Y-111214843D01*
X137938411Y-111209800D01*
X137917649Y-111206186D01*
X137897431Y-111203763D01*
X137869081Y-111201842D01*
X137844420Y-111201261D01*
X137830760Y-111201222D01*
X137041367Y-111201222D01*
X137041367Y-111610084D01*
X136909476Y-111610084D01*
X136909476Y-111201222D01*
X136378004Y-111201222D01*
X136378004Y-111069819D01*
X136404091Y-111069150D01*
X136430112Y-111067694D01*
X136456019Y-111065448D01*
X136481765Y-111062412D01*
X136507300Y-111058586D01*
X136532576Y-111053967D01*
X136557546Y-111048555D01*
X136582160Y-111042349D01*
X136606371Y-111035348D01*
X136630130Y-111027552D01*
X136653388Y-111018958D01*
X136676098Y-111009566D01*
X136698212Y-110999376D01*
X136719680Y-110988385D01*
X136740455Y-110976594D01*
X136760488Y-110964001D01*
X136779731Y-110950605D01*
X136798136Y-110936405D01*
X136815655Y-110921400D01*
X136832238Y-110905589D01*
X136847838Y-110888972D01*
X136862407Y-110871547D01*
X136875896Y-110853313D01*
X136888258Y-110834270D01*
X136899442Y-110814415D01*
X136909402Y-110793749D01*
X136918089Y-110772271D01*
X136925455Y-110749978D01*
X136931451Y-110726871D01*
X136936029Y-110702948D01*
X136939142Y-110678209D01*
X136940739Y-110652652D01*
X137041367Y-110652652D01*
X137041367Y-110882240D01*
X137824898Y-110882240D01*
X137852768Y-110882946D01*
X137879245Y-110885026D01*
X137904363Y-110888430D01*
X137928156Y-110893103D01*
X137950656Y-110898992D01*
X137971898Y-110906046D01*
X137991913Y-110914211D01*
X138010737Y-110923434D01*
X138028401Y-110933662D01*
X138044939Y-110944843D01*
X138060384Y-110956923D01*
X138088130Y-110983571D01*
X138111905Y-111013184D01*
X138131974Y-111045337D01*
X138148605Y-111079610D01*
X138162063Y-111115577D01*
X138172614Y-111152817D01*
X138180525Y-111190907D01*
X138186061Y-111229424D01*
X138189490Y-111267945D01*
X138191077Y-111306047D01*
X138191263Y-111324808D01*
X138190797Y-111344475D01*
X138187130Y-111382259D01*
X138179952Y-111417930D01*
X138169428Y-111451430D01*
X138155719Y-111482700D01*
X138138989Y-111511683D01*
X138119401Y-111538321D01*
X138097118Y-111562555D01*
X138072303Y-111584328D01*
X138045121Y-111603583D01*
X138015732Y-111620260D01*
X137984302Y-111634302D01*
X137950993Y-111645651D01*
X137915967Y-111654249D01*
X137879389Y-111660039D01*
X137841421Y-111662961D01*
X137821967Y-111663329D01*
G37*
D12*
%TO.C,G\u002A\u002A\u002A*%
G36*
X135323838Y-94253000D02*
G01*
X135278625Y-94250052D01*
X135234674Y-94241267D01*
X135192681Y-94226730D01*
X135153341Y-94206529D01*
X135117350Y-94180751D01*
X135085403Y-94149484D01*
X135058196Y-94112813D01*
X135036425Y-94070826D01*
X135020784Y-94023609D01*
X135011970Y-93971250D01*
X135010230Y-93933531D01*
X135012521Y-93888823D01*
X135019038Y-93842947D01*
X135029241Y-93796384D01*
X135042592Y-93749616D01*
X135058554Y-93703122D01*
X135076588Y-93657383D01*
X135096156Y-93612882D01*
X135116720Y-93570097D01*
X135139982Y-93521340D01*
X135159492Y-93478956D01*
X135175669Y-93442159D01*
X135192780Y-93400427D01*
X135208406Y-93357416D01*
X135221271Y-93314421D01*
X135230890Y-93274877D01*
X135233956Y-93261374D01*
X135190673Y-93266652D01*
X135148585Y-93273099D01*
X135107448Y-93280648D01*
X135067014Y-93289229D01*
X135027038Y-93298777D01*
X134987272Y-93309223D01*
X134947471Y-93320500D01*
X134907388Y-93332540D01*
X134866777Y-93345276D01*
X134825392Y-93358640D01*
X134797250Y-93367864D01*
X134741290Y-93385124D01*
X134703828Y-93396481D01*
X134666294Y-93407612D01*
X134628732Y-93418427D01*
X134572434Y-93433861D01*
X134516323Y-93448078D01*
X134460548Y-93460774D01*
X134405259Y-93471644D01*
X134350606Y-93480384D01*
X134296739Y-93486689D01*
X134243807Y-93490256D01*
X134209113Y-93490963D01*
X134160508Y-93488612D01*
X134116749Y-93481866D01*
X134077602Y-93471185D01*
X134027010Y-93448789D01*
X133985465Y-93420123D01*
X133952169Y-93386735D01*
X133926327Y-93350178D01*
X133907139Y-93312001D01*
X133893811Y-93273754D01*
X133883776Y-93225331D01*
X133880851Y-93183217D01*
X133884457Y-93134398D01*
X133892395Y-93095456D01*
X133905430Y-93055934D01*
X133924113Y-93017107D01*
X133948995Y-92980251D01*
X133980625Y-92946640D01*
X134019556Y-92917551D01*
X134066336Y-92894257D01*
X134121518Y-92878035D01*
X134163245Y-92871778D01*
X134209113Y-92869609D01*
X134261176Y-92871176D01*
X134313922Y-92875656D01*
X134367157Y-92882715D01*
X134420689Y-92892020D01*
X134474323Y-92903238D01*
X134527867Y-92916035D01*
X134581128Y-92930078D01*
X134633913Y-92945034D01*
X134686027Y-92960570D01*
X134737279Y-92976352D01*
X134770872Y-92986845D01*
X134821149Y-93002314D01*
X134868919Y-93016832D01*
X134914556Y-93030374D01*
X134958439Y-93042916D01*
X135000943Y-93054434D01*
X135042446Y-93064904D01*
X135083325Y-93074302D01*
X135123955Y-93082604D01*
X135164715Y-93089785D01*
X135205979Y-93095821D01*
X135233956Y-93099197D01*
X135224354Y-93055722D01*
X135212062Y-93012998D01*
X135197218Y-92970944D01*
X135180955Y-92930889D01*
X135164930Y-92894920D01*
X135155799Y-92875471D01*
X135136629Y-92836862D01*
X135117332Y-92796999D01*
X135098348Y-92756071D01*
X135080116Y-92714265D01*
X135063075Y-92671769D01*
X135047665Y-92628774D01*
X135034325Y-92585465D01*
X135023495Y-92542033D01*
X135015615Y-92498666D01*
X135011124Y-92455551D01*
X135010230Y-92427041D01*
X135012151Y-92385618D01*
X135021788Y-92329464D01*
X135038669Y-92280266D01*
X135061822Y-92237779D01*
X135090277Y-92201756D01*
X135123063Y-92171951D01*
X135159208Y-92148117D01*
X135197743Y-92130009D01*
X135237697Y-92117379D01*
X135278098Y-92109982D01*
X135317976Y-92107571D01*
X135363415Y-92110519D01*
X135407502Y-92119305D01*
X135449559Y-92133841D01*
X135488902Y-92154042D01*
X135524851Y-92179820D01*
X135556726Y-92211088D01*
X135583844Y-92247758D01*
X135605526Y-92289746D01*
X135621090Y-92336962D01*
X135629854Y-92389321D01*
X135631584Y-92427041D01*
X135629334Y-92472031D01*
X135622928Y-92518052D01*
X135612882Y-92564668D01*
X135599710Y-92611444D01*
X135583928Y-92657946D01*
X135566050Y-92703737D01*
X135546593Y-92748384D01*
X135526071Y-92791451D01*
X135502784Y-92839959D01*
X135483208Y-92882139D01*
X135466933Y-92918775D01*
X135449657Y-92960349D01*
X135433805Y-93003237D01*
X135420695Y-93046166D01*
X135410934Y-93085694D01*
X135407857Y-93099197D01*
X135450536Y-93093517D01*
X135493230Y-93086010D01*
X135535699Y-93076960D01*
X135577701Y-93066654D01*
X135618995Y-93055374D01*
X135659339Y-93043407D01*
X135698492Y-93031038D01*
X135736211Y-93018551D01*
X135783858Y-93002212D01*
X135827955Y-92986845D01*
X135892071Y-92966209D01*
X135950383Y-92948148D01*
X136003524Y-92932492D01*
X136052124Y-92919068D01*
X136096814Y-92907705D01*
X136138225Y-92898231D01*
X136176989Y-92890474D01*
X136231551Y-92881684D01*
X136283706Y-92875791D01*
X136335584Y-92872217D01*
X136389316Y-92870382D01*
X136447030Y-92869705D01*
X136488771Y-92869612D01*
X136510858Y-92869609D01*
X136578649Y-92869771D01*
X136646466Y-92870256D01*
X136714306Y-92871059D01*
X136782166Y-92872177D01*
X136850043Y-92873605D01*
X136917934Y-92875340D01*
X136985837Y-92877378D01*
X137053749Y-92879714D01*
X137121666Y-92882345D01*
X137189586Y-92885267D01*
X137257506Y-92888476D01*
X137325423Y-92891968D01*
X137393334Y-92895739D01*
X137461237Y-92899786D01*
X137529129Y-92904103D01*
X137597006Y-92908688D01*
X137664866Y-92913536D01*
X137732706Y-92918643D01*
X137800523Y-92924006D01*
X137868314Y-92929620D01*
X137936076Y-92935482D01*
X138003808Y-92941587D01*
X138071504Y-92947933D01*
X138139164Y-92954514D01*
X138206783Y-92961326D01*
X138274360Y-92968367D01*
X138341891Y-92975632D01*
X138409373Y-92983117D01*
X138476803Y-92990818D01*
X138544180Y-92998731D01*
X138611498Y-93006852D01*
X138678757Y-93015177D01*
X138724991Y-93021010D01*
X138765904Y-93026658D01*
X138807765Y-93032966D01*
X138848226Y-93039741D01*
X138893258Y-93048569D01*
X138933115Y-93059189D01*
X138947424Y-93065980D01*
X138976963Y-93095381D01*
X138985634Y-93136995D01*
X138986503Y-93177355D01*
X138994037Y-93216677D01*
X138993452Y-93257066D01*
X138975925Y-93292759D01*
X138940586Y-93312177D01*
X138893587Y-93319079D01*
X138832748Y-93327494D01*
X138750148Y-93338404D01*
X138701182Y-93344646D01*
X138647369Y-93351333D01*
X138588906Y-93358405D01*
X138525991Y-93365804D01*
X138458822Y-93373468D01*
X138387597Y-93381340D01*
X138312513Y-93389359D01*
X138233768Y-93397465D01*
X138151559Y-93405600D01*
X138066085Y-93413703D01*
X137977542Y-93421715D01*
X137886129Y-93429576D01*
X137792043Y-93437227D01*
X137695482Y-93444609D01*
X137596644Y-93451661D01*
X137495726Y-93458324D01*
X137392926Y-93464538D01*
X137288441Y-93470245D01*
X137182470Y-93475384D01*
X137075209Y-93479896D01*
X136966857Y-93483721D01*
X136857612Y-93486800D01*
X136747670Y-93489073D01*
X136637230Y-93490480D01*
X136526489Y-93490963D01*
X136480408Y-93490931D01*
X136438016Y-93490711D01*
X136398561Y-93490112D01*
X136343238Y-93488093D01*
X136290287Y-93484162D01*
X136237170Y-93477680D01*
X136181344Y-93468010D01*
X136141368Y-93459478D01*
X136098306Y-93449057D01*
X136051407Y-93436557D01*
X135999916Y-93421791D01*
X135943081Y-93404569D01*
X135880150Y-93384703D01*
X135810369Y-93362002D01*
X135765095Y-93347140D01*
X135718183Y-93332128D01*
X135670012Y-93317369D01*
X135620959Y-93303262D01*
X135571403Y-93290208D01*
X135521720Y-93278609D01*
X135472290Y-93268864D01*
X135423489Y-93261374D01*
X135431789Y-93299681D01*
X135443648Y-93341905D01*
X135457854Y-93383124D01*
X135473311Y-93422226D01*
X135492676Y-93466628D01*
X135501646Y-93486078D01*
X135516819Y-93524436D01*
X135532865Y-93564096D01*
X135549269Y-93604863D01*
X135565514Y-93646545D01*
X135581082Y-93688948D01*
X135595458Y-93731879D01*
X135608123Y-93775146D01*
X135618562Y-93818553D01*
X135626258Y-93861909D01*
X135630693Y-93905021D01*
X135631584Y-93933531D01*
X135629673Y-93974953D01*
X135620086Y-94031108D01*
X135603282Y-94080305D01*
X135580219Y-94122792D01*
X135551852Y-94158815D01*
X135519139Y-94188620D01*
X135483034Y-94212454D01*
X135444496Y-94230562D01*
X135404479Y-94243192D01*
X135363941Y-94250589D01*
X135323838Y-94253000D01*
G37*
G36*
X140768754Y-91757590D02*
G01*
X140396207Y-91720898D01*
X140016912Y-91640881D01*
X139634601Y-91518949D01*
X139253006Y-91356515D01*
X138875859Y-91154992D01*
X138506892Y-90915791D01*
X138149836Y-90640324D01*
X138109696Y-90606374D01*
X138023652Y-90528270D01*
X137918482Y-90425842D01*
X137804486Y-90309834D01*
X137691967Y-90190987D01*
X137591226Y-90080044D01*
X137512566Y-89987748D01*
X137494436Y-89964810D01*
X137331041Y-89736412D01*
X137184237Y-89499470D01*
X137058839Y-89263257D01*
X136959662Y-89037043D01*
X136891523Y-88830099D01*
X136879615Y-88781179D01*
X136863603Y-88649337D01*
X137099701Y-88649337D01*
X137115530Y-88813099D01*
X137151136Y-88967833D01*
X137210076Y-89128839D01*
X137295906Y-89311420D01*
X137299263Y-89318038D01*
X137411484Y-89526816D01*
X137522384Y-89705229D01*
X137643010Y-89869590D01*
X137784411Y-90036213D01*
X137789397Y-90041758D01*
X138128884Y-90383393D01*
X138497424Y-90687536D01*
X138892190Y-90952555D01*
X139310354Y-91176820D01*
X139749089Y-91358698D01*
X140205570Y-91496560D01*
X140379277Y-91536269D01*
X140629432Y-91574926D01*
X140894107Y-91591567D01*
X141157917Y-91586342D01*
X141405475Y-91559399D01*
X141572328Y-91524740D01*
X141809484Y-91446612D01*
X142005353Y-91346279D01*
X142162677Y-91221365D01*
X142284199Y-91069497D01*
X142372659Y-90888303D01*
X142398748Y-90809316D01*
X142415574Y-90714452D01*
X142423460Y-90585333D01*
X142422963Y-90435050D01*
X142414645Y-90276691D01*
X142399064Y-90123348D01*
X142376780Y-89988110D01*
X142360838Y-89922544D01*
X142243895Y-89590432D01*
X142087371Y-89277352D01*
X141888425Y-88978411D01*
X141645511Y-88690099D01*
X141339104Y-88395268D01*
X140991504Y-88122669D01*
X140605179Y-87873902D01*
X140182596Y-87650568D01*
X139763593Y-87468814D01*
X139529554Y-87382934D01*
X139322337Y-87321182D01*
X139128699Y-87280732D01*
X138935397Y-87258760D01*
X138749525Y-87252443D01*
X138603914Y-87253589D01*
X138489926Y-87259334D01*
X138390967Y-87271597D01*
X138290444Y-87292298D01*
X138197282Y-87316353D01*
X137913766Y-87412426D01*
X137668966Y-87535606D01*
X137463475Y-87685464D01*
X137297888Y-87861571D01*
X137177776Y-88053404D01*
X137146770Y-88120870D01*
X137126018Y-88184146D01*
X137112916Y-88256897D01*
X137104861Y-88352788D01*
X137100091Y-88461246D01*
X137099701Y-88649337D01*
X136863603Y-88649337D01*
X136856704Y-88592529D01*
X136863451Y-88374221D01*
X136898277Y-88133423D01*
X136959605Y-87877301D01*
X137045856Y-87613025D01*
X137155452Y-87347760D01*
X137228177Y-87198058D01*
X137449936Y-86817801D01*
X137712993Y-86456325D01*
X138012398Y-86118514D01*
X138343203Y-85809252D01*
X138700461Y-85533422D01*
X139079222Y-85295907D01*
X139244486Y-85208268D01*
X139410502Y-85131892D01*
X139600795Y-85055726D01*
X139800384Y-84984939D01*
X139994288Y-84924700D01*
X140167527Y-84880178D01*
X140234410Y-84866708D01*
X140394133Y-84846543D01*
X140580754Y-84836297D01*
X140779356Y-84835668D01*
X140975024Y-84844356D01*
X141152839Y-84862058D01*
X141296768Y-84888196D01*
X141580523Y-84976254D01*
X141860253Y-85096994D01*
X142115980Y-85241660D01*
X142141415Y-85258409D01*
X142296799Y-85375491D01*
X142462606Y-85523051D01*
X142626767Y-85688839D01*
X142777214Y-85860601D01*
X142901878Y-86026086D01*
X142911163Y-86039867D01*
X143067640Y-86302335D01*
X143210692Y-86596118D01*
X143333322Y-86904671D01*
X143428531Y-87211448D01*
X143457936Y-87332509D01*
X143475928Y-87444074D01*
X143490264Y-87593013D01*
X143500763Y-87768537D01*
X143507242Y-87959855D01*
X143509521Y-88156179D01*
X143507417Y-88346717D01*
X143500749Y-88520681D01*
X143489334Y-88667282D01*
X143481471Y-88729055D01*
X143402569Y-89117637D01*
X143282461Y-89522517D01*
X143123240Y-89938611D01*
X142926998Y-90360834D01*
X142695825Y-90784101D01*
X142516527Y-91074905D01*
X142388198Y-91255225D01*
X142262435Y-91392876D01*
X142133933Y-91492832D01*
X142000509Y-91558909D01*
X141835122Y-91612657D01*
X141640152Y-91663140D01*
X141434299Y-91706259D01*
X141236261Y-91737916D01*
X141130822Y-91749543D01*
X140894107Y-91754804D01*
X140768754Y-91757590D01*
G37*
G36*
X139922281Y-89882964D02*
G01*
X139927569Y-89885138D01*
X139968583Y-89911702D01*
X140038446Y-89965330D01*
X140130580Y-90040274D01*
X140238406Y-90130785D01*
X140355346Y-90231114D01*
X140474820Y-90335512D01*
X140590251Y-90438230D01*
X140695059Y-90533520D01*
X140782667Y-90615633D01*
X140846495Y-90678820D01*
X140879966Y-90717332D01*
X140880075Y-90717497D01*
X140930918Y-90825410D01*
X140950295Y-90938451D01*
X140936748Y-91041511D01*
X140915685Y-91086977D01*
X140874061Y-91145307D01*
X140835562Y-91187788D01*
X140833815Y-91189268D01*
X140758713Y-91231558D01*
X140652195Y-91266585D01*
X140531058Y-91289772D01*
X140439813Y-91296652D01*
X140253543Y-91278941D01*
X140061756Y-91223647D01*
X139875313Y-91136724D01*
X139705074Y-91024125D01*
X139561900Y-90891806D01*
X139466487Y-90763046D01*
X139413475Y-90627820D01*
X139398294Y-90476679D01*
X139419055Y-90321171D01*
X139473869Y-90172843D01*
X139560847Y-90043244D01*
X139589107Y-90013443D01*
X139671870Y-89948963D01*
X139764413Y-89902150D01*
X139852596Y-89878363D01*
X139922281Y-89882964D01*
G37*
G36*
X138310992Y-87833915D02*
G01*
X138485330Y-87878011D01*
X138630997Y-87940830D01*
X138840581Y-88071594D01*
X139022984Y-88239725D01*
X139173488Y-88439842D01*
X139287373Y-88666566D01*
X139302324Y-88706180D01*
X139336511Y-88814775D01*
X139363259Y-88926048D01*
X139380815Y-89028849D01*
X139387425Y-89112028D01*
X139381337Y-89164436D01*
X139375798Y-89173527D01*
X139339644Y-89184397D01*
X139266754Y-89189825D01*
X139168356Y-89189968D01*
X139055678Y-89184986D01*
X138939947Y-89175038D01*
X138871070Y-89166372D01*
X138591945Y-89107388D01*
X138348372Y-89016093D01*
X138139722Y-88892157D01*
X137965368Y-88735250D01*
X137900883Y-88657693D01*
X137832168Y-88564503D01*
X137787640Y-88494200D01*
X137760157Y-88432924D01*
X137742576Y-88366817D01*
X137737607Y-88340900D01*
X137735198Y-88207307D01*
X137778985Y-88085891D01*
X137869573Y-87975074D01*
X137882308Y-87963563D01*
X138011644Y-87876626D01*
X138153818Y-87833432D01*
X138310992Y-87833915D01*
G37*
G36*
X138214590Y-89086533D02*
G01*
X138358976Y-89116783D01*
X138535702Y-89172114D01*
X138640874Y-89210464D01*
X138851824Y-89292637D01*
X139036671Y-89369507D01*
X139191149Y-89439088D01*
X139310993Y-89499396D01*
X139391939Y-89548446D01*
X139422389Y-89574137D01*
X139457587Y-89642432D01*
X139475238Y-89739979D01*
X139473520Y-89850374D01*
X139460992Y-89921906D01*
X139428179Y-90020334D01*
X139379473Y-90127747D01*
X139322886Y-90229386D01*
X139266424Y-90310487D01*
X139229500Y-90348549D01*
X139113079Y-90413724D01*
X138974380Y-90451139D01*
X138833430Y-90456320D01*
X138781759Y-90448550D01*
X138590203Y-90384339D01*
X138401631Y-90276959D01*
X138222274Y-90131421D01*
X138058366Y-89952734D01*
X137923779Y-89758744D01*
X137838391Y-89595092D01*
X137793901Y-89454814D01*
X137790293Y-89335629D01*
X137827555Y-89235261D01*
X137905670Y-89151430D01*
X137919844Y-89140899D01*
X138000587Y-89099128D01*
X138096981Y-89080827D01*
X138214590Y-89086533D01*
G37*
G36*
X139797889Y-87959584D02*
G01*
X139939260Y-88005706D01*
X140101288Y-88082286D01*
X140288874Y-88190793D01*
X140437067Y-88285905D01*
X140651294Y-88435876D01*
X140820379Y-88572654D01*
X140945259Y-88697490D01*
X141026871Y-88811637D01*
X141066150Y-88916346D01*
X141064032Y-89012870D01*
X141033838Y-89083945D01*
X140965356Y-89172815D01*
X140878303Y-89241738D01*
X140765658Y-89293817D01*
X140620402Y-89332157D01*
X140435515Y-89359864D01*
X140401758Y-89363521D01*
X140185806Y-89378732D01*
X140011475Y-89374895D01*
X139875910Y-89351772D01*
X139780918Y-89312022D01*
X139698908Y-89240254D01*
X139613839Y-89124485D01*
X139528170Y-88968688D01*
X139444362Y-88776834D01*
X139435876Y-88755034D01*
X139368588Y-88553603D01*
X139330813Y-88377324D01*
X139322504Y-88228999D01*
X139343615Y-88111434D01*
X139394098Y-88027433D01*
X139448728Y-87989254D01*
X139557523Y-87952828D01*
X139672277Y-87942448D01*
X139797889Y-87959584D01*
G37*
G36*
X140694424Y-89441727D02*
G01*
X140941418Y-89472989D01*
X141166637Y-89531335D01*
X141366329Y-89614058D01*
X141536742Y-89718453D01*
X141674122Y-89841814D01*
X141774719Y-89981434D01*
X141834780Y-90134608D01*
X141851146Y-90275957D01*
X141843786Y-90369880D01*
X141826091Y-90458617D01*
X141813629Y-90495265D01*
X141736012Y-90623169D01*
X141631856Y-90710768D01*
X141501757Y-90757673D01*
X141399407Y-90766131D01*
X141267052Y-90745677D01*
X141115627Y-90689602D01*
X140952650Y-90602594D01*
X140785640Y-90489342D01*
X140622116Y-90354535D01*
X140469595Y-90202859D01*
X140436605Y-90165784D01*
X140323134Y-90028884D01*
X140230524Y-89904479D01*
X140162485Y-89798220D01*
X140122725Y-89715759D01*
X140113688Y-89673778D01*
X140135088Y-89582034D01*
X140199143Y-89512599D01*
X140305635Y-89465558D01*
X140454347Y-89441000D01*
X140645062Y-89439011D01*
X140694424Y-89441727D01*
G37*
%TD*%
%LPC*%
D13*
%TO.C,H2*%
X181225000Y-65750000D03*
%TD*%
D14*
%TO.C,SCK/MISO/MOSI/CS/GND*%
X181475000Y-88590000D03*
D15*
X181475000Y-91130000D03*
X181475000Y-93670000D03*
X181475000Y-96210000D03*
X181475000Y-98750000D03*
%TD*%
D16*
%TO.C,PMT 3*%
X115387500Y-104425000D03*
X115387500Y-110075000D03*
%TD*%
D13*
%TO.C,H4*%
X116725000Y-131750000D03*
%TD*%
D17*
%TO.C,Teensy 4.1*%
X159875000Y-63020000D03*
D18*
X159875000Y-65560000D03*
X159875000Y-68100000D03*
X159875000Y-70640000D03*
X159875000Y-73180000D03*
X159875000Y-75720000D03*
X159875000Y-78260000D03*
X159875000Y-80800000D03*
X159875000Y-83340000D03*
X159875000Y-85880000D03*
X159875000Y-88420000D03*
X159875000Y-90960000D03*
X159875000Y-93500000D03*
X159875000Y-96040000D03*
X159875000Y-98580000D03*
X159875000Y-101120000D03*
X159875000Y-103660000D03*
X159875000Y-106200000D03*
X159875000Y-108740000D03*
X159875000Y-111280000D03*
X159875000Y-113820000D03*
X159875000Y-116360000D03*
X159875000Y-118900000D03*
X159875000Y-121440000D03*
X175115000Y-121440000D03*
X175115000Y-118900000D03*
X175115000Y-116360000D03*
X175115000Y-113820000D03*
X175115000Y-111280000D03*
X175115000Y-108740000D03*
X175115000Y-106200000D03*
X175115000Y-103660000D03*
X175115000Y-101120000D03*
X175115000Y-98580000D03*
X175115000Y-96040000D03*
X175115000Y-93500000D03*
X175115000Y-90960000D03*
X175115000Y-88420000D03*
X175115000Y-85880000D03*
X175115000Y-83340000D03*
X175115000Y-80800000D03*
X175115000Y-78260000D03*
X175115000Y-75720000D03*
X175115000Y-73180000D03*
X175115000Y-70640000D03*
X175115000Y-68100000D03*
X175115000Y-65560000D03*
X175115000Y-63020000D03*
X172575000Y-65560000D03*
X162415000Y-108740000D03*
X164955000Y-108740000D03*
X167495000Y-108740000D03*
X170035000Y-108740000D03*
X172575000Y-108740000D03*
D17*
X162925800Y-69319200D03*
D18*
X162925800Y-71859200D03*
X162925800Y-74399200D03*
X162925800Y-76939200D03*
X162925800Y-79479200D03*
D19*
X172676600Y-75990000D03*
D20*
X170676600Y-75990000D03*
X168676600Y-75990000D03*
X168676600Y-77990000D03*
X170676600Y-77990000D03*
X172676600Y-77990000D03*
X168765000Y-63750000D03*
X166225000Y-63750000D03*
%TD*%
D13*
%TO.C,H3*%
X116975000Y-65750000D03*
%TD*%
%TO.C,H1*%
X180975000Y-131750000D03*
%TD*%
D16*
%TO.C,PMT 1*%
X115425000Y-73925000D03*
X115425000Y-79575000D03*
%TD*%
D14*
%TO.C,TX/RX/GND*%
X181475000Y-74750000D03*
D15*
X181475000Y-77290000D03*
X181475000Y-79830000D03*
%TD*%
D16*
%TO.C,PMT 2*%
X115387500Y-88925000D03*
X115387500Y-94575000D03*
%TD*%
D21*
%TO.C,-3\u002C3V/GND/+5V*%
X128475000Y-66700000D03*
D22*
X126475000Y-66700000D03*
X124475000Y-66700000D03*
%TD*%
D16*
%TO.C,PMT 4*%
X115387500Y-119925000D03*
X115387500Y-125575000D03*
%TD*%
M02*
