%TF.GenerationSoftware,KiCad,Pcbnew,7.0.1*%
%TF.CreationDate,2023-03-27T19:42:43+02:00*%
%TF.ProjectId,OpenSPD_PCB,4f70656e-5350-4445-9f50-43422e6b6963,rev?*%
%TF.SameCoordinates,Original*%
%TF.FileFunction,Paste,Top*%
%TF.FilePolarity,Positive*%
%FSLAX46Y46*%
G04 Gerber Fmt 4.6, Leading zero omitted, Abs format (unit mm)*
G04 Created by KiCad (PCBNEW 7.0.1) date 2023-03-27 19:42:43*
%MOMM*%
%LPD*%
G01*
G04 APERTURE LIST*
G04 Aperture macros list*
%AMRoundRect*
0 Rectangle with rounded corners*
0 $1 Rounding radius*
0 $2 $3 $4 $5 $6 $7 $8 $9 X,Y pos of 4 corners*
0 Add a 4 corners polygon primitive as box body*
4,1,4,$2,$3,$4,$5,$6,$7,$8,$9,$2,$3,0*
0 Add four circle primitives for the rounded corners*
1,1,$1+$1,$2,$3*
1,1,$1+$1,$4,$5*
1,1,$1+$1,$6,$7*
1,1,$1+$1,$8,$9*
0 Add four rect primitives between the rounded corners*
20,1,$1+$1,$2,$3,$4,$5,0*
20,1,$1+$1,$4,$5,$6,$7,0*
20,1,$1+$1,$6,$7,$8,$9,0*
20,1,$1+$1,$8,$9,$2,$3,0*%
G04 Aperture macros list end*
%ADD10R,1.200000X0.399999*%
%ADD11RoundRect,0.225000X0.225000X0.250000X-0.225000X0.250000X-0.225000X-0.250000X0.225000X-0.250000X0*%
%ADD12RoundRect,0.225000X-0.225000X-0.250000X0.225000X-0.250000X0.225000X0.250000X-0.225000X0.250000X0*%
%ADD13RoundRect,0.200000X-0.200000X-0.275000X0.200000X-0.275000X0.200000X0.275000X-0.200000X0.275000X0*%
%ADD14RoundRect,0.218750X-0.218750X-0.256250X0.218750X-0.256250X0.218750X0.256250X-0.218750X0.256250X0*%
%ADD15RoundRect,0.218750X0.256250X-0.218750X0.256250X0.218750X-0.256250X0.218750X-0.256250X-0.218750X0*%
%ADD16RoundRect,0.225000X-0.250000X0.225000X-0.250000X-0.225000X0.250000X-0.225000X0.250000X0.225000X0*%
%ADD17RoundRect,0.200000X0.200000X0.275000X-0.200000X0.275000X-0.200000X-0.275000X0.200000X-0.275000X0*%
%ADD18RoundRect,0.200000X0.275000X-0.200000X0.275000X0.200000X-0.275000X0.200000X-0.275000X-0.200000X0*%
%ADD19RoundRect,0.150000X-0.512500X-0.150000X0.512500X-0.150000X0.512500X0.150000X-0.512500X0.150000X0*%
%ADD20R,1.300000X2.000000*%
%ADD21R,2.000000X2.000000*%
%ADD22RoundRect,0.225000X0.250000X-0.225000X0.250000X0.225000X-0.250000X0.225000X-0.250000X-0.225000X0*%
%ADD23R,3.600000X1.270000*%
%ADD24R,4.200000X1.350000*%
%ADD25R,0.399999X1.200000*%
%ADD26RoundRect,0.150000X0.512500X0.150000X-0.512500X0.150000X-0.512500X-0.150000X0.512500X-0.150000X0*%
%ADD27R,2.000000X1.500000*%
%ADD28R,2.000000X3.800000*%
%ADD29RoundRect,0.218750X0.218750X0.256250X-0.218750X0.256250X-0.218750X-0.256250X0.218750X-0.256250X0*%
G04 APERTURE END LIST*
D10*
%TO.C,U13*%
X141089999Y-105814123D03*
X141089999Y-106464123D03*
X141089999Y-107114123D03*
X142689998Y-107114123D03*
X142689998Y-106464123D03*
X142689998Y-105814123D03*
%TD*%
D11*
%TO.C,C56*%
X127165000Y-118250000D03*
X125615000Y-118250000D03*
%TD*%
D12*
%TO.C,C28*%
X144087500Y-97200000D03*
X145637500Y-97200000D03*
%TD*%
D13*
%TO.C,R15*%
X136037500Y-87200000D03*
X137687500Y-87200000D03*
%TD*%
D14*
%TO.C,D1*%
X147587500Y-74250000D03*
X149162500Y-74250000D03*
%TD*%
D15*
%TO.C,-3\u002C3V ON*%
X155725000Y-67400000D03*
X155725000Y-65825000D03*
%TD*%
D16*
%TO.C,C44*%
X142390000Y-109689124D03*
X142390000Y-111239124D03*
%TD*%
D17*
%TO.C,R28*%
X134215000Y-102964124D03*
X132565000Y-102964124D03*
%TD*%
D11*
%TO.C,C53*%
X122440000Y-124750000D03*
X120890000Y-124750000D03*
%TD*%
%TO.C,C21*%
X122412500Y-96700000D03*
X120862500Y-96700000D03*
%TD*%
D10*
%TO.C,U9*%
X141062499Y-90549999D03*
X141062499Y-91199999D03*
X141062499Y-91849999D03*
X142662498Y-91849999D03*
X142662498Y-91199999D03*
X142662498Y-90549999D03*
%TD*%
D11*
%TO.C,C39*%
X127665000Y-104464124D03*
X126115000Y-104464124D03*
%TD*%
D13*
%TO.C,R42*%
X143890000Y-119250000D03*
X145540000Y-119250000D03*
%TD*%
D11*
%TO.C,C41*%
X127165000Y-102464124D03*
X125615000Y-102464124D03*
%TD*%
D16*
%TO.C,C40*%
X129390000Y-110689124D03*
X129390000Y-112239124D03*
%TD*%
D13*
%TO.C,R41*%
X136065000Y-120250000D03*
X137715000Y-120250000D03*
%TD*%
%TO.C,R25*%
X121065000Y-106964124D03*
X122715000Y-106964124D03*
%TD*%
D17*
%TO.C,R33*%
X149365000Y-107464124D03*
X147715000Y-107464124D03*
%TD*%
D11*
%TO.C,C36*%
X122440000Y-111964124D03*
X120890000Y-111964124D03*
%TD*%
D12*
%TO.C,C61*%
X150615000Y-129250000D03*
X152165000Y-129250000D03*
%TD*%
D18*
%TO.C,R19*%
X133362500Y-96025000D03*
X133362500Y-94375000D03*
%TD*%
D19*
%TO.C,U2*%
X129587500Y-75750000D03*
X129587500Y-76700000D03*
X129587500Y-77650000D03*
X131862500Y-77650000D03*
X131862500Y-76700000D03*
X131862500Y-75750000D03*
%TD*%
D16*
%TO.C,C16*%
X133225000Y-66250000D03*
X133225000Y-67800000D03*
%TD*%
D19*
%TO.C,U8*%
X129725000Y-90700000D03*
X129725000Y-91650000D03*
X129725000Y-92600000D03*
X132000000Y-92600000D03*
X132000000Y-91650000D03*
X132000000Y-90700000D03*
%TD*%
D20*
%TO.C,RV3*%
X135740000Y-110964124D03*
D21*
X136890000Y-106964124D03*
D20*
X138040000Y-110964124D03*
%TD*%
D16*
%TO.C,C18*%
X147625000Y-66000000D03*
X147625000Y-67550000D03*
%TD*%
D13*
%TO.C,R5*%
X135900000Y-74250000D03*
X137550000Y-74250000D03*
%TD*%
D22*
%TO.C,C14*%
X153070000Y-81025000D03*
X153070000Y-79475000D03*
%TD*%
D11*
%TO.C,C47*%
X130665000Y-102964124D03*
X129115000Y-102964124D03*
%TD*%
%TO.C,C24*%
X127637500Y-89200000D03*
X126087500Y-89200000D03*
%TD*%
D16*
%TO.C,C50*%
X125390000Y-126475000D03*
X125390000Y-128025000D03*
%TD*%
D12*
%TO.C,C46*%
X150615000Y-113464124D03*
X152165000Y-113464124D03*
%TD*%
D22*
%TO.C,C49*%
X147890000Y-113739124D03*
X147890000Y-112189124D03*
%TD*%
D16*
%TO.C,C2*%
X140225000Y-78975000D03*
X140225000Y-80525000D03*
%TD*%
D22*
%TO.C,C60*%
X153235000Y-127025000D03*
X153235000Y-125475000D03*
%TD*%
D13*
%TO.C,R17*%
X136037500Y-89200000D03*
X137687500Y-89200000D03*
%TD*%
D23*
%TO.C,PMT 3*%
X115187500Y-107250000D03*
D24*
X115387500Y-104425000D03*
X115387500Y-110075000D03*
%TD*%
D13*
%TO.C,R10*%
X150725000Y-74250000D03*
X152375000Y-74250000D03*
%TD*%
D11*
%TO.C,C62*%
X130665000Y-118750000D03*
X129115000Y-118750000D03*
%TD*%
D18*
%TO.C,R43*%
X133390000Y-127075000D03*
X133390000Y-125425000D03*
%TD*%
D20*
%TO.C,RV1*%
X135575000Y-80750000D03*
D21*
X136725000Y-76750000D03*
D20*
X137875000Y-80750000D03*
%TD*%
D13*
%TO.C,R38*%
X121065000Y-119750000D03*
X122715000Y-119750000D03*
%TD*%
D18*
%TO.C,R7*%
X133225000Y-81075000D03*
X133225000Y-79425000D03*
%TD*%
%TO.C,R12*%
X145550000Y-77075000D03*
X145550000Y-75425000D03*
%TD*%
D25*
%TO.C,U10*%
X151012501Y-94399999D03*
X150362501Y-94399999D03*
X149712501Y-94399999D03*
X149712501Y-95999998D03*
X150362501Y-95999998D03*
X151012501Y-95999998D03*
%TD*%
D26*
%TO.C,U7*%
X127000000Y-92650000D03*
X127000000Y-91700000D03*
X127000000Y-90750000D03*
X124725000Y-90750000D03*
X124725000Y-91700000D03*
X124725000Y-92650000D03*
%TD*%
D17*
%TO.C,R54*%
X170625000Y-131700000D03*
X168975000Y-131700000D03*
%TD*%
D16*
%TO.C,C25*%
X129362500Y-95425000D03*
X129362500Y-96975000D03*
%TD*%
D13*
%TO.C,R14*%
X121037500Y-88700000D03*
X122687500Y-88700000D03*
%TD*%
D22*
%TO.C,C34*%
X147862500Y-98475000D03*
X147862500Y-96925000D03*
%TD*%
D10*
%TO.C,U17*%
X141089999Y-121599999D03*
X141089999Y-122249999D03*
X141089999Y-122899999D03*
X142689998Y-122899999D03*
X142689998Y-122249999D03*
X142689998Y-121599999D03*
%TD*%
D16*
%TO.C,C29*%
X142362500Y-94425000D03*
X142362500Y-95975000D03*
%TD*%
D18*
%TO.C,R31*%
X133390000Y-111289124D03*
X133390000Y-109639124D03*
%TD*%
D17*
%TO.C,R16*%
X134187500Y-87700000D03*
X132537500Y-87700000D03*
%TD*%
D11*
%TO.C,C7*%
X122275000Y-78750000D03*
X120725000Y-78750000D03*
%TD*%
D22*
%TO.C,C3*%
X147725000Y-83525000D03*
X147725000Y-81975000D03*
%TD*%
D11*
%TO.C,C23*%
X122412500Y-93700000D03*
X120862500Y-93700000D03*
%TD*%
D13*
%TO.C,R22*%
X150862500Y-89200000D03*
X152512500Y-89200000D03*
%TD*%
%TO.C,R1*%
X120900000Y-76750000D03*
X122550000Y-76750000D03*
%TD*%
D26*
%TO.C,U11*%
X127027500Y-107914124D03*
X127027500Y-106964124D03*
X127027500Y-106014124D03*
X124752500Y-106014124D03*
X124752500Y-106964124D03*
X124752500Y-107914124D03*
%TD*%
D17*
%TO.C,R21*%
X149337500Y-92200000D03*
X147687500Y-92200000D03*
%TD*%
D16*
%TO.C,C63*%
X140390000Y-124975000D03*
X140390000Y-126525000D03*
%TD*%
D17*
%TO.C,R40*%
X134215000Y-118750000D03*
X132565000Y-118750000D03*
%TD*%
%TO.C,R9*%
X149200000Y-77250000D03*
X147550000Y-77250000D03*
%TD*%
D18*
%TO.C,R50*%
X155725000Y-63900000D03*
X155725000Y-62250000D03*
%TD*%
D20*
%TO.C,RV2*%
X135712500Y-95700000D03*
D21*
X136862500Y-91700000D03*
D20*
X138012500Y-95700000D03*
%TD*%
D19*
%TO.C,U16*%
X129752500Y-121750000D03*
X129752500Y-122700000D03*
X129752500Y-123650000D03*
X132027500Y-123650000D03*
X132027500Y-122700000D03*
X132027500Y-121750000D03*
%TD*%
D13*
%TO.C,R27*%
X136065000Y-102464124D03*
X137715000Y-102464124D03*
%TD*%
D22*
%TO.C,C45*%
X153235000Y-111239124D03*
X153235000Y-109689124D03*
%TD*%
D13*
%TO.C,R3*%
X135900000Y-72250000D03*
X137550000Y-72250000D03*
%TD*%
D16*
%TO.C,C13*%
X142225000Y-79475000D03*
X142225000Y-81025000D03*
%TD*%
D13*
%TO.C,R26*%
X121065000Y-103964124D03*
X122715000Y-103964124D03*
%TD*%
D11*
%TO.C,C8*%
X127500000Y-74250000D03*
X125950000Y-74250000D03*
%TD*%
D16*
%TO.C,C55*%
X129390000Y-126475000D03*
X129390000Y-128025000D03*
%TD*%
D27*
%TO.C,U6*%
X137475000Y-62750000D03*
X137475000Y-65050000D03*
D28*
X143775000Y-65050000D03*
D27*
X137475000Y-67350000D03*
%TD*%
D16*
%TO.C,C9*%
X129225000Y-80475000D03*
X129225000Y-82025000D03*
%TD*%
D20*
%TO.C,RV4*%
X135740000Y-126750000D03*
D21*
X136890000Y-122750000D03*
D20*
X138040000Y-126750000D03*
%TD*%
D16*
%TO.C,C37*%
X127390000Y-110689124D03*
X127390000Y-112239124D03*
%TD*%
%TO.C,C22*%
X127362500Y-95425000D03*
X127362500Y-96975000D03*
%TD*%
D26*
%TO.C,U1*%
X126862500Y-77700000D03*
X126862500Y-76750000D03*
X126862500Y-75800000D03*
X124587500Y-75800000D03*
X124587500Y-76750000D03*
X124587500Y-77700000D03*
%TD*%
D16*
%TO.C,C35*%
X125390000Y-110689124D03*
X125390000Y-112239124D03*
%TD*%
D11*
%TO.C,C6*%
X122275000Y-81750000D03*
X120725000Y-81750000D03*
%TD*%
D16*
%TO.C,C42*%
X131390000Y-110689124D03*
X131390000Y-112239124D03*
%TD*%
D13*
%TO.C,R11*%
X144900000Y-79250000D03*
X146550000Y-79250000D03*
%TD*%
D12*
%TO.C,C12*%
X143950000Y-82250000D03*
X145500000Y-82250000D03*
%TD*%
D16*
%TO.C,C59*%
X142390000Y-125475000D03*
X142390000Y-127025000D03*
%TD*%
D11*
%TO.C,C51*%
X122440000Y-127750000D03*
X120890000Y-127750000D03*
%TD*%
D13*
%TO.C,R34*%
X150890000Y-104464124D03*
X152540000Y-104464124D03*
%TD*%
D16*
%TO.C,C48*%
X140390000Y-109189124D03*
X140390000Y-110739124D03*
%TD*%
D13*
%TO.C,R23*%
X145037500Y-94200000D03*
X146687500Y-94200000D03*
%TD*%
D11*
%TO.C,C32*%
X130637500Y-87700000D03*
X129087500Y-87700000D03*
%TD*%
D14*
%TO.C,D2*%
X147725000Y-89200000D03*
X149300000Y-89200000D03*
%TD*%
D11*
%TO.C,C10*%
X127000000Y-72250000D03*
X125450000Y-72250000D03*
%TD*%
D14*
%TO.C,D4*%
X147752500Y-120250000D03*
X149327500Y-120250000D03*
%TD*%
D13*
%TO.C,R2*%
X120900000Y-73750000D03*
X122550000Y-73750000D03*
%TD*%
D15*
%TO.C,+3\u002C3V ON*%
X151725000Y-67575000D03*
X151725000Y-66000000D03*
%TD*%
D17*
%TO.C,R4*%
X134050000Y-72750000D03*
X132400000Y-72750000D03*
%TD*%
D16*
%TO.C,C11*%
X131225000Y-80475000D03*
X131225000Y-82025000D03*
%TD*%
D11*
%TO.C,C38*%
X122440000Y-108964124D03*
X120890000Y-108964124D03*
%TD*%
D12*
%TO.C,C15*%
X150450000Y-83250000D03*
X152000000Y-83250000D03*
%TD*%
D29*
%TO.C,PMT 2*%
X174050000Y-127500000D03*
X172475000Y-127500000D03*
%TD*%
D11*
%TO.C,C26*%
X127137500Y-87200000D03*
X125587500Y-87200000D03*
%TD*%
D13*
%TO.C,R6*%
X143725000Y-73250000D03*
X145375000Y-73250000D03*
%TD*%
D17*
%TO.C,R51*%
X162625000Y-127500000D03*
X160975000Y-127500000D03*
%TD*%
D23*
%TO.C,PMT 1*%
X115225000Y-76750000D03*
D24*
X115425000Y-73925000D03*
X115425000Y-79575000D03*
%TD*%
D14*
%TO.C,D3*%
X147752500Y-104464124D03*
X149327500Y-104464124D03*
%TD*%
D18*
%TO.C,R49*%
X151725000Y-63900000D03*
X151725000Y-62250000D03*
%TD*%
D12*
%TO.C,C58*%
X144115000Y-128250000D03*
X145665000Y-128250000D03*
%TD*%
D19*
%TO.C,U12*%
X129752500Y-105964124D03*
X129752500Y-106914124D03*
X129752500Y-107864124D03*
X132027500Y-107864124D03*
X132027500Y-106914124D03*
X132027500Y-105964124D03*
%TD*%
D25*
%TO.C,U4*%
X150875001Y-79449999D03*
X150225001Y-79449999D03*
X149575001Y-79449999D03*
X149575001Y-81049998D03*
X150225001Y-81049998D03*
X150875001Y-81049998D03*
%TD*%
D18*
%TO.C,R36*%
X145715000Y-107289124D03*
X145715000Y-105639124D03*
%TD*%
D23*
%TO.C,PMT 2*%
X115187500Y-91750000D03*
D24*
X115387500Y-88925000D03*
X115387500Y-94575000D03*
%TD*%
D25*
%TO.C,U14*%
X151040001Y-109664123D03*
X150390001Y-109664123D03*
X149740001Y-109664123D03*
X149740001Y-111264122D03*
X150390001Y-111264122D03*
X151040001Y-111264122D03*
%TD*%
D11*
%TO.C,C1*%
X130500000Y-72750000D03*
X128950000Y-72750000D03*
%TD*%
D22*
%TO.C,C19*%
X147625000Y-63825000D03*
X147625000Y-62275000D03*
%TD*%
D11*
%TO.C,C54*%
X127665000Y-120250000D03*
X126115000Y-120250000D03*
%TD*%
D12*
%TO.C,C31*%
X150587500Y-98200000D03*
X152137500Y-98200000D03*
%TD*%
D13*
%TO.C,R18*%
X143862500Y-88200000D03*
X145512500Y-88200000D03*
%TD*%
%TO.C,R30*%
X143890000Y-103464124D03*
X145540000Y-103464124D03*
%TD*%
D29*
%TO.C,PMT 4*%
X174125000Y-131750000D03*
X172550000Y-131750000D03*
%TD*%
D13*
%TO.C,R46*%
X150890000Y-120250000D03*
X152540000Y-120250000D03*
%TD*%
D16*
%TO.C,C4*%
X125225000Y-80475000D03*
X125225000Y-82025000D03*
%TD*%
D17*
%TO.C,R45*%
X149365000Y-123250000D03*
X147715000Y-123250000D03*
%TD*%
D16*
%TO.C,C33*%
X140362500Y-93925000D03*
X140362500Y-95475000D03*
%TD*%
%TO.C,C5*%
X127225000Y-80475000D03*
X127225000Y-82025000D03*
%TD*%
%TO.C,C27*%
X131362500Y-95425000D03*
X131362500Y-96975000D03*
%TD*%
D29*
%TO.C,PMT 1*%
X165975000Y-127500000D03*
X164400000Y-127500000D03*
%TD*%
%TO.C,PMT 3*%
X166125000Y-131750000D03*
X164550000Y-131750000D03*
%TD*%
D22*
%TO.C,C17*%
X133225000Y-64025000D03*
X133225000Y-62475000D03*
%TD*%
%TO.C,C30*%
X153207500Y-95975000D03*
X153207500Y-94425000D03*
%TD*%
D17*
%TO.C,R52*%
X170550000Y-127500000D03*
X168900000Y-127500000D03*
%TD*%
D16*
%TO.C,C52*%
X127390000Y-126475000D03*
X127390000Y-128025000D03*
%TD*%
D13*
%TO.C,R13*%
X121037500Y-91700000D03*
X122687500Y-91700000D03*
%TD*%
D23*
%TO.C,PMT 4*%
X115187500Y-122750000D03*
D24*
X115387500Y-119925000D03*
X115387500Y-125575000D03*
%TD*%
D13*
%TO.C,R29*%
X136065000Y-104464124D03*
X137715000Y-104464124D03*
%TD*%
D18*
%TO.C,R48*%
X145715000Y-123075000D03*
X145715000Y-121425000D03*
%TD*%
%TO.C,R24*%
X145687500Y-92025000D03*
X145687500Y-90375000D03*
%TD*%
D13*
%TO.C,R47*%
X145065000Y-125250000D03*
X146715000Y-125250000D03*
%TD*%
D17*
%TO.C,R53*%
X162625000Y-131750000D03*
X160975000Y-131750000D03*
%TD*%
D13*
%TO.C,R37*%
X121065000Y-122750000D03*
X122715000Y-122750000D03*
%TD*%
D25*
%TO.C,U18*%
X151040001Y-125449999D03*
X150390001Y-125449999D03*
X149740001Y-125449999D03*
X149740001Y-127049998D03*
X150390001Y-127049998D03*
X151040001Y-127049998D03*
%TD*%
D22*
%TO.C,C64*%
X147890000Y-129525000D03*
X147890000Y-127975000D03*
%TD*%
D16*
%TO.C,C20*%
X125362500Y-95425000D03*
X125362500Y-96975000D03*
%TD*%
D13*
%TO.C,R35*%
X145065000Y-109464124D03*
X146715000Y-109464124D03*
%TD*%
D10*
%TO.C,U3*%
X140924999Y-75599999D03*
X140924999Y-76249999D03*
X140924999Y-76899999D03*
X142524998Y-76899999D03*
X142524998Y-76249999D03*
X142524998Y-75599999D03*
%TD*%
D13*
%TO.C,R39*%
X136065000Y-118250000D03*
X137715000Y-118250000D03*
%TD*%
D26*
%TO.C,U15*%
X127027500Y-123700000D03*
X127027500Y-122750000D03*
X127027500Y-121800000D03*
X124752500Y-121800000D03*
X124752500Y-122750000D03*
X124752500Y-123700000D03*
%TD*%
D12*
%TO.C,C43*%
X144115000Y-112464124D03*
X145665000Y-112464124D03*
%TD*%
D16*
%TO.C,C57*%
X131390000Y-126475000D03*
X131390000Y-128025000D03*
%TD*%
M02*
