M48
INCH
T1C0.0157
T2C0.0295
T3C0.0315
T4C0.0394
T5C0.0433
T6C0.1260
%
G90
G05
T1
X4.753Y-3.1594
X4.7584Y-3.748
X4.7594Y-4.349
X4.7594Y-4.9705
X4.8711Y-2.8445
X4.8711Y-3.2185
X4.8765Y-3.4331
X4.8765Y-3.8071
X4.8776Y-4.034
X4.8776Y-4.408
X4.8776Y-4.6555
X4.8776Y-5.0295
X4.9006Y-2.7362
X5.0089Y-2.8839
X5.0143Y-3.4724
X5.0154Y-4.0734
X5.0154Y-4.6949
X5.0482Y-2.9626
X5.0482Y-3.0217
X5.0482Y-3.1004
X5.0536Y-3.5512
X5.0536Y-3.6102
X5.0536Y-3.689
X5.0547Y-4.1521
X5.0547Y-4.2112
X5.0547Y-4.2899
X5.0547Y-4.7736
X5.0547Y-4.8327
X5.0547Y-4.9114
X5.1073Y-2.9429
X5.1127Y-3.5315
X5.1138Y-4.1324
X5.1138Y-4.7539
X5.1171Y-3.2874
X5.1171Y-3.878
X5.1171Y-4.4783
X5.1171Y-5.1083
X5.127Y-3.1201
X5.1324Y-3.7087
X5.1335Y-4.3096
X5.1335Y-4.9311
X5.186Y-2.6673
X5.2057Y-3.2579
X5.2111Y-3.8465
X5.2122Y-4.4474
X5.2122Y-5.0689
X5.3238Y-2.4606
X5.4813Y-2.8248
X5.4911Y-3.9961
X5.501Y-2.9429
X5.501Y-3.3957
X5.501Y-4.6161
X5.5064Y-3.5315
X5.5075Y-4.1324
X5.5075Y-4.7539
X5.5207Y-3.2382
X5.5261Y-3.8268
X5.5272Y-4.4277
X5.5272Y-5.0492
X5.7175Y-3.1791
X5.7229Y-3.7677
X5.724Y-4.3687
X5.724Y-4.9902
X5.747Y-2.6476
X5.8356Y-3.1594
X5.841Y-3.748
X5.8421Y-4.349
X5.8421Y-4.9705
X5.8947Y-2.4508
X5.8947Y-2.8642
X5.9001Y-3.4528
X5.9012Y-4.0537
X5.9012Y-4.6752
X5.9341Y-3.0413
X5.9395Y-3.6299
X5.9406Y-4.2309
X5.9406Y-4.8524
X5.9734Y-2.8642
X5.9788Y-3.4528
X5.9799Y-4.0537
X5.9799Y-4.6752
X5.9931Y-2.7559
X6.0325Y-3.0807
X6.0325Y-3.2579
X6.0379Y-3.6693
X6.0379Y-3.8465
X6.039Y-4.2702
X6.039Y-4.4474
X6.039Y-4.8917
X6.039Y-5.0689
X6.0423Y-2.687
X6.0522Y-2.4803
X6.1998Y-2.5394
X6.2392Y-5.0197
X6.2392Y-5.187
X6.7018Y-4.9213
X6.7018Y-5.1083
X6.9085Y-4.9114
X6.9872Y-4.7441
T2
X4.9006Y-2.626
X4.9793Y-2.626
X5.0581Y-2.626
T3
X6.5443Y-2.5098
X6.6408Y-2.9917
X6.6408Y-3.0705
X6.6443Y-2.5098
X6.7196Y-2.9917
X6.7196Y-3.0705
X6.7983Y-2.9917
X6.7983Y-3.0705
T4
X7.1447Y-2.9429
X7.1447Y-3.0429
X7.1447Y-3.1429
X7.1447Y-3.4878
X7.1447Y-3.5878
X7.1447Y-3.6878
X7.1447Y-3.7878
X7.1447Y-3.8878
T5
X6.2943Y-2.4811
X6.2943Y-2.5811
X6.2943Y-2.6811
X6.2943Y-2.7811
X6.2943Y-2.8811
X6.2943Y-2.9811
X6.2943Y-3.0811
X6.2943Y-3.1811
X6.2943Y-3.2811
X6.2943Y-3.3811
X6.2943Y-3.4811
X6.2943Y-3.5811
X6.2943Y-3.6811
X6.2943Y-3.7811
X6.2943Y-3.8811
X6.2943Y-3.9811
X6.2943Y-4.0811
X6.2943Y-4.1811
X6.2943Y-4.2811
X6.2943Y-4.3811
X6.2943Y-4.4811
X6.2943Y-4.5811
X6.2943Y-4.6811
X6.2943Y-4.7811
X6.3943Y-4.2811
X6.4144Y-2.7291
X6.4144Y-2.8291
X6.4144Y-2.9291
X6.4144Y-3.0291
X6.4144Y-3.1291
X6.4943Y-4.2811
X6.5943Y-4.2811
X6.6943Y-4.2811
X6.7943Y-2.5811
X6.7943Y-4.2811
X6.8943Y-2.4811
X6.8943Y-2.5811
X6.8943Y-2.6811
X6.8943Y-2.7811
X6.8943Y-2.8811
X6.8943Y-2.9811
X6.8943Y-3.0811
X6.8943Y-3.1811
X6.8943Y-3.2811
X6.8943Y-3.3811
X6.8943Y-3.4811
X6.8943Y-3.5811
X6.8943Y-3.6811
X6.8943Y-3.7811
X6.8943Y-3.8811
X6.8943Y-3.9811
X6.8943Y-4.0811
X6.8943Y-4.1811
X6.8943Y-4.2811
X6.8943Y-4.3811
X6.8943Y-4.4811
X6.8943Y-4.5811
X6.8943Y-4.6811
X6.8943Y-4.7811
T6
X4.5955Y-5.187
X4.6053Y-2.5886
X7.125Y-5.187
X7.1348Y-2.5886
T0
M30
