%TF.GenerationSoftware,KiCad,Pcbnew,7.0.1*%
%TF.CreationDate,2023-03-27T19:42:43+02:00*%
%TF.ProjectId,OpenSPD_PCB,4f70656e-5350-4445-9f50-43422e6b6963,rev?*%
%TF.SameCoordinates,Original*%
%TF.FileFunction,Soldermask,Bot*%
%TF.FilePolarity,Negative*%
%FSLAX46Y46*%
G04 Gerber Fmt 4.6, Leading zero omitted, Abs format (unit mm)*
G04 Created by KiCad (PCBNEW 7.0.1) date 2023-03-27 19:42:43*
%MOMM*%
%LPD*%
G01*
G04 APERTURE LIST*
G04 Aperture macros list*
%AMRoundRect*
0 Rectangle with rounded corners*
0 $1 Rounding radius*
0 $2 $3 $4 $5 $6 $7 $8 $9 X,Y pos of 4 corners*
0 Add a 4 corners polygon primitive as box body*
4,1,4,$2,$3,$4,$5,$6,$7,$8,$9,$2,$3,0*
0 Add four circle primitives for the rounded corners*
1,1,$1+$1,$2,$3*
1,1,$1+$1,$4,$5*
1,1,$1+$1,$6,$7*
1,1,$1+$1,$8,$9*
0 Add four rect primitives between the rounded corners*
20,1,$1+$1,$2,$3,$4,$5,0*
20,1,$1+$1,$4,$5,$6,$7,0*
20,1,$1+$1,$6,$7,$8,$9,0*
20,1,$1+$1,$8,$9,$2,$3,0*%
G04 Aperture macros list end*
%ADD10C,6.400000*%
%ADD11R,1.700000X1.700000*%
%ADD12O,1.700000X1.700000*%
%ADD13R,4.200000X1.350000*%
%ADD14R,1.600000X1.600000*%
%ADD15C,1.600000*%
%ADD16R,1.300000X1.300000*%
%ADD17C,1.300000*%
%ADD18RoundRect,0.250000X0.350000X0.625000X-0.350000X0.625000X-0.350000X-0.625000X0.350000X-0.625000X0*%
%ADD19O,1.200000X1.750000*%
G04 APERTURE END LIST*
D10*
%TO.C,H2*%
X181225000Y-65750000D03*
%TD*%
D11*
%TO.C,SCK/MISO/MOSI/CS/GND*%
X181475000Y-88590000D03*
D12*
X181475000Y-91130000D03*
X181475000Y-93670000D03*
X181475000Y-96210000D03*
X181475000Y-98750000D03*
%TD*%
D13*
%TO.C,PMT 3*%
X115387500Y-104425000D03*
X115387500Y-110075000D03*
%TD*%
D10*
%TO.C,H4*%
X116725000Y-131750000D03*
%TD*%
D14*
%TO.C,Teensy 4.1*%
X159875000Y-63020000D03*
D15*
X159875000Y-65560000D03*
X159875000Y-68100000D03*
X159875000Y-70640000D03*
X159875000Y-73180000D03*
X159875000Y-75720000D03*
X159875000Y-78260000D03*
X159875000Y-80800000D03*
X159875000Y-83340000D03*
X159875000Y-85880000D03*
X159875000Y-88420000D03*
X159875000Y-90960000D03*
X159875000Y-93500000D03*
X159875000Y-96040000D03*
X159875000Y-98580000D03*
X159875000Y-101120000D03*
X159875000Y-103660000D03*
X159875000Y-106200000D03*
X159875000Y-108740000D03*
X159875000Y-111280000D03*
X159875000Y-113820000D03*
X159875000Y-116360000D03*
X159875000Y-118900000D03*
X159875000Y-121440000D03*
X175115000Y-121440000D03*
X175115000Y-118900000D03*
X175115000Y-116360000D03*
X175115000Y-113820000D03*
X175115000Y-111280000D03*
X175115000Y-108740000D03*
X175115000Y-106200000D03*
X175115000Y-103660000D03*
X175115000Y-101120000D03*
X175115000Y-98580000D03*
X175115000Y-96040000D03*
X175115000Y-93500000D03*
X175115000Y-90960000D03*
X175115000Y-88420000D03*
X175115000Y-85880000D03*
X175115000Y-83340000D03*
X175115000Y-80800000D03*
X175115000Y-78260000D03*
X175115000Y-75720000D03*
X175115000Y-73180000D03*
X175115000Y-70640000D03*
X175115000Y-68100000D03*
X175115000Y-65560000D03*
X175115000Y-63020000D03*
X172575000Y-65560000D03*
X162415000Y-108740000D03*
X164955000Y-108740000D03*
X167495000Y-108740000D03*
X170035000Y-108740000D03*
X172575000Y-108740000D03*
D14*
X162925800Y-69319200D03*
D15*
X162925800Y-71859200D03*
X162925800Y-74399200D03*
X162925800Y-76939200D03*
X162925800Y-79479200D03*
D16*
X172676600Y-75990000D03*
D17*
X170676600Y-75990000D03*
X168676600Y-75990000D03*
X168676600Y-77990000D03*
X170676600Y-77990000D03*
X172676600Y-77990000D03*
X168765000Y-63750000D03*
X166225000Y-63750000D03*
%TD*%
D10*
%TO.C,H3*%
X116975000Y-65750000D03*
%TD*%
%TO.C,H1*%
X180975000Y-131750000D03*
%TD*%
D13*
%TO.C,PMT 1*%
X115425000Y-73925000D03*
X115425000Y-79575000D03*
%TD*%
D11*
%TO.C,TX/RX/GND*%
X181475000Y-74750000D03*
D12*
X181475000Y-77290000D03*
X181475000Y-79830000D03*
%TD*%
D13*
%TO.C,PMT 2*%
X115387500Y-88925000D03*
X115387500Y-94575000D03*
%TD*%
D18*
%TO.C,-3\u002C3V/GND/+5V*%
X128475000Y-66700000D03*
D19*
X126475000Y-66700000D03*
X124475000Y-66700000D03*
%TD*%
D13*
%TO.C,PMT 4*%
X115387500Y-119925000D03*
X115387500Y-125575000D03*
%TD*%
M02*
